  0
SECTION
  2
HEADER
  9
$ACADVER
  1
AC1027
  9
$ACADMAINTVER
 70
105
  9
$DWGCODEPAGE
  3
ANSI_1252
  9
$LASTSAVEDBY
  1
ezdxf
  9
$REQUIREDVERSIONS
160
0
  9
$INSBASE
 10
0.0
 20
0.0
 30
0.0
  9
$EXTMIN
 10
1e+20
 20
1e+20
 30
1e+20
  9
$EXTMAX
 10
-1e+20
 20
-1e+20
 30
-1e+20
  9
$LIMMIN
 10
0.0
 20
0.0
  9
$LIMMAX
 10
420.0
 20
297.0
  9
$ORTHOMODE
 70
0
  9
$REGENMODE
 70
1
  9
$FILLMODE
 70
1
  9
$QTEXTMODE
 70
0
  9
$MIRRTEXT
 70
1
  9
$LTSCALE
 40
1.0
  9
$ATTMODE
 70
1
  9
$TEXTSIZE
 40
2.5
  9
$TRACEWID
 40
1.0
  9
$TEXTSTYLE
  7
Standard
  9
$CLAYER
  8
0
  9
$CELTYPE
  6
ByLayer
  9
$CECOLOR
 62
256
  9
$CELTSCALE
 40
1.0
  9
$DISPSILH
 70
0
  9
$DIMSCALE
 40
1.0
  9
$DIMASZ
 40
2.5
  9
$DIMEXO
 40
0.625
  9
$DIMDLI
 40
3.75
  9
$DIMRND
 40
0.0
  9
$DIMDLE
 40
0.0
  9
$DIMEXE
 40
1.25
  9
$DIMTP
 40
0.0
  9
$DIMTM
 40
0.0
  9
$DIMTXT
 40
2.5
  9
$DIMCEN
 40
2.5
  9
$DIMTSZ
 40
0.0
  9
$DIMTOL
 70
0
  9
$DIMLIM
 70
0
  9
$DIMTIH
 70
0
  9
$DIMTOH
 70
0
  9
$DIMSE1
 70
0
  9
$DIMSE2
 70
0
  9
$DIMTAD
 70
1
  9
$DIMZIN
 70
8
  9
$DIMBLK
  1

  9
$DIMASO
 70
1
  9
$DIMSHO
 70
1
  9
$DIMPOST
  1

  9
$DIMAPOST
  1

  9
$DIMALT
 70
0
  9
$DIMALTD
 70
3
  9
$DIMALTF
 40
0.03937007874
  9
$DIMLFAC
 40
1.0
  9
$DIMTOFL
 70
1
  9
$DIMTVP
 40
0.0
  9
$DIMTIX
 70
0
  9
$DIMSOXD
 70
0
  9
$DIMSAH
 70
0
  9
$DIMBLK1
  1

  9
$DIMBLK2
  1

  9
$DIMSTYLE
  2
ISO-25
  9
$DIMCLRD
 70
0
  9
$DIMCLRE
 70
0
  9
$DIMCLRT
 70
0
  9
$DIMTFAC
 40
1.0
  9
$DIMGAP
 40
0.625
  9
$DIMJUST
 70
0
  9
$DIMSD1
 70
0
  9
$DIMSD2
 70
0
  9
$DIMTOLJ
 70
0
  9
$DIMTZIN
 70
8
  9
$DIMALTZ
 70
0
  9
$DIMALTTZ
 70
0
  9
$DIMUPT
 70
0
  9
$DIMDEC
 70
2
  9
$DIMTDEC
 70
2
  9
$DIMALTU
 70
2
  9
$DIMALTTD
 70
3
  9
$DIMTXSTY
  7
Standard
  9
$DIMAUNIT
 70
0
  9
$DIMADEC
 70
0
  9
$DIMALTRND
 40
0.0
  9
$DIMAZIN
 70
0
  9
$DIMDSEP
 70
44
  9
$DIMATFIT
 70
3
  9
$DIMFRAC
 70
0
  9
$DIMLDRBLK
  1

  9
$DIMLUNIT
 70
2
  9
$DIMLWD
 70
-2
  9
$DIMLWE
 70
-2
  9
$DIMTMOVE
 70
0
  9
$DIMFXL
 40
1.0
  9
$DIMFXLON
 70
0
  9
$DIMJOGANG
 40
0.785398163397
  9
$DIMTFILL
 70
0
  9
$DIMTFILLCLR
 70
0
  9
$DIMARCSYM
 70
0
  9
$DIMLTYPE
  6

  9
$DIMLTEX1
  6

  9
$DIMLTEX2
  6

  9
$DIMTXTDIRECTION
 70
0
  9
$LUNITS
 70
2
  9
$LUPREC
 70
4
  9
$SKETCHINC
 40
1.0
  9
$FILLETRAD
 40
10.0
  9
$AUNITS
 70
0
  9
$AUPREC
 70
2
  9
$MENU
  1
.
  9
$ELEVATION
 40
0.0
  9
$PELEVATION
 40
0.0
  9
$THICKNESS
 40
0.0
  9
$LIMCHECK
 70
0
  9
$CHAMFERA
 40
0.0
  9
$CHAMFERB
 40
0.0
  9
$CHAMFERC
 40
0.0
  9
$CHAMFERD
 40
0.0
  9
$SKPOLY
 70
0
  9
$TDCREATE
 40
2460101.6919791666
  9
$TDUCREATE
 40
2458532.153996898
  9
$TDUPDATE
 40
2460101.6919791666
  9
$TDUUPDATE
 40
2458532.1544311
  9
$TDINDWG
 40
0.0
  9
$TDUSRTIMER
 40
0.0
  9
$USRTIMER
 70
1
  9
$ANGBASE
 50
0.0
  9
$ANGDIR
 70
0
  9
$PDMODE
 70
0
  9
$PDSIZE
 40
0.0
  9
$PLINEWID
 40
0.0
  9
$SPLFRAME
 70
0
  9
$SPLINETYPE
 70
6
  9
$SPLINESEGS
 70
8
  9
$HANDSEED
  5
EA
  9
$SURFTAB1
 70
6
  9
$SURFTAB2
 70
6
  9
$SURFTYPE
 70
6
  9
$SURFU
 70
6
  9
$SURFV
 70
6
  9
$UCSBASE
  2

  9
$UCSNAME
  2

  9
$UCSORG
 10
0.0
 20
0.0
 30
0.0
  9
$UCSXDIR
 10
1.0
 20
0.0
 30
0.0
  9
$UCSYDIR
 10
0.0
 20
1.0
 30
0.0
  9
$UCSORTHOREF
  2

  9
$UCSORTHOVIEW
 70
0
  9
$UCSORGTOP
 10
0.0
 20
0.0
 30
0.0
  9
$UCSORGBOTTOM
 10
0.0
 20
0.0
 30
0.0
  9
$UCSORGLEFT
 10
0.0
 20
0.0
 30
0.0
  9
$UCSORGRIGHT
 10
0.0
 20
0.0
 30
0.0
  9
$UCSORGFRONT
 10
0.0
 20
0.0
 30
0.0
  9
$UCSORGBACK
 10
0.0
 20
0.0
 30
0.0
  9
$PUCSBASE
  2

  9
$PUCSNAME
  2

  9
$PUCSORG
 10
0.0
 20
0.0
 30
0.0
  9
$PUCSXDIR
 10
1.0
 20
0.0
 30
0.0
  9
$PUCSYDIR
 10
0.0
 20
1.0
 30
0.0
  9
$PUCSORTHOREF
  2

  9
$PUCSORTHOVIEW
 70
0
  9
$PUCSORGTOP
 10
0.0
 20
0.0
 30
0.0
  9
$PUCSORGBOTTOM
 10
0.0
 20
0.0
 30
0.0
  9
$PUCSORGLEFT
 10
0.0
 20
0.0
 30
0.0
  9
$PUCSORGRIGHT
 10
0.0
 20
0.0
 30
0.0
  9
$PUCSORGFRONT
 10
0.0
 20
0.0
 30
0.0
  9
$PUCSORGBACK
 10
0.0
 20
0.0
 30
0.0
  9
$USERI1
 70
0
  9
$USERI2
 70
0
  9
$USERI3
 70
0
  9
$USERI4
 70
0
  9
$USERI5
 70
0
  9
$USERR1
 40
0.0
  9
$USERR2
 40
0.0
  9
$USERR3
 40
0.0
  9
$USERR4
 40
0.0
  9
$USERR5
 40
0.0
  9
$WORLDVIEW
 70
1
  9
$SHADEDGE
 70
3
  9
$SHADEDIF
 70
70
  9
$TILEMODE
 70
1
  9
$MAXACTVP
 70
64
  9
$PINSBASE
 10
0.0
 20
0.0
 30
0.0
  9
$PLIMCHECK
 70
0
  9
$PEXTMIN
 10
1e+20
 20
1e+20
 30
1e+20
  9
$PEXTMAX
 10
-1e+20
 20
-1e+20
 30
-1e+20
  9
$PLIMMIN
 10
0.0
 20
0.0
  9
$PLIMMAX
 10
420.0
 20
297.0
  9
$UNITMODE
 70
0
  9
$VISRETAIN
 70
1
  9
$PLINEGEN
 70
0
  9
$PSLTSCALE
 70
1
  9
$TREEDEPTH
 70
3020
  9
$CMLSTYLE
  2
Standard
  9
$CMLJUST
 70
0
  9
$CMLSCALE
 40
20.0
  9
$PROXYGRAPHICS
 70
1
  9
$MEASUREMENT
 70
1
  9
$CELWEIGHT
370
-1
  9
$ENDCAPS
280
0
  9
$JOINSTYLE
280
0
  9
$LWDISPLAY
290
0
  9
$INSUNITS
 70
4
  9
$HYPERLINKBASE
  1

  9
$STYLESHEET
  1

  9
$XEDIT
290
1
  9
$CEPSNTYPE
380
0
  9
$PSTYLEMODE
290
1
  9
$FINGERPRINTGUID
  2
{87572088-F533-4A68-9E8D-40B28C0F6035}
  9
$VERSIONGUID
  2
{EBEF4CFA-F89E-4007-8D44-50320ACCD3DB}
  9
$EXTNAMES
290
1
  9
$PSVPSCALE
 40
0.0
  9
$OLESTARTUP
290
0
  9
$SORTENTS
280
127
  9
$INDEXCTL
280
0
  9
$HIDETEXT
280
1
  9
$XCLIPFRAME
280
0
  9
$HALOGAP
280
0
  9
$OBSCOLOR
 70
257
  9
$OBSLTYPE
280
0
  9
$INTERSECTIONDISPLAY
280
0
  9
$INTERSECTIONCOLOR
 70
257
  9
$DIMASSOC
280
2
  9
$PROJECTNAME
  1

  9
$CAMERADISPLAY
290
0
  9
$LENSLENGTH
 40
50.0
  9
$CAMERAHEIGHT
 40
0.0
  9
$STEPSPERSEC
 40
24.0
  9
$STEPSIZE
 40
100.0
  9
$3DDWFPREC
 40
2.0
  9
$PSOLWIDTH
 40
0.005
  9
$PSOLHEIGHT
 40
0.08
  9
$LOFTANG1
 40
1.570796326795
  9
$LOFTANG2
 40
1.570796326795
  9
$LOFTMAG1
 40
0.0
  9
$LOFTMAG2
 40
0.0
  9
$LOFTPARAM
 70
7
  9
$LOFTNORMALS
280
1
  9
$LATITUDE
 40
37.795
  9
$LONGITUDE
 40
-122.394
  9
$NORTHDIRECTION
 40
0.0
  9
$TIMEZONE
 70
-8000
  9
$LIGHTGLYPHDISPLAY
280
1
  9
$TILEMODELIGHTSYNCH
280
1
  9
$CMATERIAL
347
20
  9
$SOLIDHIST
280
0
  9
$SHOWHIST
280
1
  9
$DWFFRAME
280
2
  9
$DGNFRAME
280
2
  9
$REALWORLDSCALE
290
1
  9
$INTERFERECOLOR
 62
256
  9
$CSHADOW
280
0
  9
$SHADOWPLANELOCATION
 40
0.0
  0
ENDSEC
  0
SECTION
  2
CLASSES
  0
CLASS
  1
ACDBDICTIONARYWDFLT
  2
AcDbDictionaryWithDefault
  3
ObjectDBX Classes
 90
0
 91
0
280
0
281
0
  0
CLASS
  1
SUN
  2
AcDbSun
  3
SCENEOE
 90
1153
 91
0
280
0
281
0
  0
CLASS
  1
VISUALSTYLE
  2
AcDbVisualStyle
  3
ObjectDBX Classes
 90
4095
 91
0
280
0
281
0
  0
CLASS
  1
MATERIAL
  2
AcDbMaterial
  3
ObjectDBX Classes
 90
1153
 91
0
280
0
281
0
  0
CLASS
  1
SCALE
  2
AcDbScale
  3
ObjectDBX Classes
 90
1153
 91
0
280
0
281
0
  0
CLASS
  1
TABLESTYLE
  2
AcDbTableStyle
  3
ObjectDBX Classes
 90
4095
 91
0
280
0
281
0
  0
CLASS
  1
MLEADERSTYLE
  2
AcDbMLeaderStyle
  3
ACDB_MLEADERSTYLE_CLASS
 90
4095
 91
0
280
0
281
0
  0
CLASS
  1
DICTIONARYVAR
  2
AcDbDictionaryVar
  3
ObjectDBX Classes
 90
0
 91
0
280
0
281
0
  0
CLASS
  1
CELLSTYLEMAP
  2
AcDbCellStyleMap
  3
ObjectDBX Classes
 90
1152
 91
0
280
0
281
0
  0
CLASS
  1
MENTALRAYRENDERSETTINGS
  2
AcDbMentalRayRenderSettings
  3
SCENEOE
 90
1024
 91
0
280
0
281
0
  0
CLASS
  1
ACDBDETAILVIEWSTYLE
  2
AcDbDetailViewStyle
  3
ObjectDBX Classes
 90
1025
 91
0
280
0
281
0
  0
CLASS
  1
ACDBSECTIONVIEWSTYLE
  2
AcDbSectionViewStyle
  3
ObjectDBX Classes
 90
1025
 91
0
280
0
281
0
  0
CLASS
  1
RASTERVARIABLES
  2
AcDbRasterVariables
  3
ISM
 90
0
 91
0
280
0
281
0
  0
CLASS
  1
ACDBPLACEHOLDER
  2
AcDbPlaceHolder
  3
ObjectDBX Classes
 90
0
 91
0
280
0
281
0
  0
CLASS
  1
LAYOUT
  2
AcDbLayout
  3
ObjectDBX Classes
 90
0
 91
0
280
0
281
0
  0
ENDSEC
  0
SECTION
  2
TABLES
  0
TABLE
  2
VPORT
  5
8
330
0
100
AcDbSymbolTable
 70
1
  0
VPORT
  5
E6
330
8
100
AcDbSymbolTableRecord
100
AcDbViewportTableRecord
  2
*Active
 70
0
 10
0.0
 20
0.0
 11
1.0
 21
1.0
 12
-11.508680919633534
 22
-32.04396350703662
 13
0.0
 23
0.0
 14
0.5
 24
0.5
 15
0.5
 25
0.5
 16
0.0
 26
0.0
 36
1.0
 17
0.0
 27
0.0
 37
0.0
 40
159.42437816225615
 41
1.34
 42
50.0
 43
0.0
 44
0.0
 50
0.0
 51
0.0
 71
0
 72
1000
 73
1
 74
3
 75
0
 76
0
 77
0
 78
0
281
0
 65
1
110
0.0
120
0.0
130
0.0
111
1.0
121
0.0
131
0.0
112
0.0
122
1.0
132
0.0
 79
0
146
0.0
  0
ENDTAB
  0
TABLE
  2
LTYPE
  5
2
330
0
100
AcDbSymbolTable
 70
3
  0
LTYPE
  5
24
330
2
100
AcDbSymbolTableRecord
100
AcDbLinetypeTableRecord
  2
ByBlock
 70
0
  3

 72
65
 73
0
 40
0.0
  0
LTYPE
  5
25
330
2
100
AcDbSymbolTableRecord
100
AcDbLinetypeTableRecord
  2
ByLayer
 70
0
  3

 72
65
 73
0
 40
0.0
  0
LTYPE
  5
26
330
2
100
AcDbSymbolTableRecord
100
AcDbLinetypeTableRecord
  2
Continuous
 70
0
  3

 72
65
 73
0
 40
0.0
  0
ENDTAB
  0
TABLE
  2
LAYER
  5
1
330
0
100
AcDbSymbolTable
 70
2
  0
LAYER
  5
27
330
1
100
AcDbSymbolTableRecord
100
AcDbLayerTableRecord
  2
0
 70
0
 62
7
  6
Continuous
370
-3
390
13
347
21
  0
LAYER
  5
28
330
1
100
AcDbSymbolTableRecord
100
AcDbLayerTableRecord
  2
Defpoints
 70
0
 62
7
  6
Continuous
290
0
370
-3
390
13
347
21
  0
ENDTAB
  0
TABLE
  2
STYLE
  5
5
330
0
100
AcDbSymbolTable
 70
1
  0
STYLE
  5
29
330
5
100
AcDbSymbolTableRecord
100
AcDbTextStyleTableRecord
  2
Standard
 70
0
 40
0.0
 41
1.0
 50
0.0
 71
0
 42
2.5
  3
txt
  4

  0
ENDTAB
  0
TABLE
  2
VIEW
  5
7
330
0
100
AcDbSymbolTable
 70
0
  0
ENDTAB
  0
TABLE
  2
UCS
  5
6
330
0
100
AcDbSymbolTable
 70
0
  0
ENDTAB
  0
TABLE
  2
APPID
  5
3
330
0
100
AcDbSymbolTable
 70
3
  0
APPID
  5
2A
330
3
100
AcDbSymbolTableRecord
100
AcDbRegAppTableRecord
  2
ACAD
 70
0
  0
APPID
  5
E7
330
3
100
AcDbSymbolTableRecord
100
AcDbRegAppTableRecord
  2
HATCHBACKGROUNDCOLOR
 70
0
  0
APPID
  5
E8
330
3
100
AcDbSymbolTableRecord
100
AcDbRegAppTableRecord
  2
EZDXF
 70
0
  0
ENDTAB
  0
TABLE
  2
DIMSTYLE
  5
4
330
0
100
AcDbSymbolTable
 70
1
100
AcDbDimStyleTable
  0
DIMSTYLE
105
2B
330
4
100
AcDbSymbolTableRecord
100
AcDbDimStyleTableRecord
  2
Standard
 70
0
 40
1.0
 41
2.5
 42
0.625
 43
3.75
 44
1.25
 45
0.0
 46
0.0
 47
0.0
 48
0.0
 49
2.5
140
2.5
141
2.5
142
0.0
143
0.03937007874
144
1.0
145
0.0
146
1.0
147
0.625
148
0.0
 69
0
 70
0
 71
0
 72
0
 73
0
 74
0
 75
0
 76
0
 77
1
 78
8
 79
3
170
0
171
3
172
1
173
0
174
0
175
0
176
0
177
0
178
0
179
2
271
2
272
2
273
2
274
3
275
0
276
0
277
2
278
44
279
0
280
0
281
0
282
0
283
0
284
8
285
0
286
0
288
0
289
3
290
0
371
-2
372
-2
  0
ENDTAB
  0
TABLE
  2
BLOCK_RECORD
  5
9
330
0
100
AcDbSymbolTable
 70
2
  0
BLOCK_RECORD
  5
17
330
9
100
AcDbSymbolTableRecord
100
AcDbBlockTableRecord
  2
*Model_Space
340
1A
 70
0
280
1
281
0
  0
BLOCK_RECORD
  5
1B
330
9
100
AcDbSymbolTableRecord
100
AcDbBlockTableRecord
  2
*Paper_Space
340
1E
 70
0
280
1
281
0
  0
ENDTAB
  0
ENDSEC
  0
SECTION
  2
BLOCKS
  0
BLOCK
  5
18
330
17
100
AcDbEntity
  8
0
100
AcDbBlockBegin
  2
*Model_Space
 70
0
 10
0.0
 20
0.0
 30
0.0
  3
*Model_Space
  1

  0
ENDBLK
  5
19
330
17
100
AcDbEntity
  8
0
100
AcDbBlockEnd
  0
BLOCK
  5
1C
330
1B
100
AcDbEntity
  8
0
100
AcDbBlockBegin
  2
*Paper_Space
 70
0
 10
0.0
 20
0.0
 30
0.0
  3
*Paper_Space
  1

  0
ENDBLK
  5
1D
330
1B
100
AcDbEntity
  8
0
100
AcDbBlockEnd
  0
ENDSEC
  0
SECTION
  2
ENTITIES
  0
LINE
  5
2F
330
17
100
AcDbEntity
  8
0
100
AcDbLine
 10
-75.21322722672305
 20
-56.201526920860786
 30
-3.0
 11
-76.34611925818
 21
-50.7535592264457
 31
-3.0
  0
LINE
  5
30
330
17
100
AcDbEntity
  8
0
100
AcDbLine
 10
-83.57368925884563
 20
-62.05558545866833
 30
-3.000000000000001
 11
-75.21322722672303
 21
-56.201526920860786
 31
-3.000000000000001
  0
LINE
  5
31
330
17
100
AcDbEntity
  8
0
100
AcDbLine
 10
-83.57368925884509
 20
-62.05558545866908
 30
-3.0
 11
-85.28374581438777
 21
-63.8399661317184
 31
-3.0
  0
LINE
  5
32
330
17
100
AcDbEntity
  8
0
100
AcDbLine
 10
-85.41721966272169
 20
-76.68133963371656
 30
-3.0
 11
-85.28374581438777
 21
-63.83996613171839
 31
-3.0
  0
LINE
  5
33
330
17
100
AcDbEntity
  8
0
100
AcDbLine
 10
-74.64057082593264
 20
-90.3819723936263
 30
-3.0
 11
-85.4172196627217
 21
-76.68133963371656
 31
-3.0
  0
LINE
  5
34
330
17
100
AcDbEntity
  8
0
100
AcDbLine
 10
-72.90627908573184
 20
-94.32357519013105
 30
-3.0
 11
-74.64057082593109
 21
-90.38197239362506
 31
-3.0
  0
LINE
  5
35
330
17
100
AcDbEntity
  8
0
100
AcDbLine
 10
-72.90627908573184
 20
-94.32357519013104
 30
-3.0
 11
-62.02393417642848
 21
-108.07160746909038
 31
-3.0
  0
LINE
  5
36
330
17
100
AcDbEntity
  8
0
100
AcDbLine
 10
-49.08010182161028
 20
-111.7561525881647
 30
-2.9999999999999996
 11
-62.02393417642658
 21
-108.07160746908889
 31
-2.9999999999999996
  0
LINE
  5
37
330
17
100
AcDbEntity
  8
0
100
AcDbLine
 10
-49.08010182161026
 20
-111.75615258816467
 30
-3.0
 11
-38.48443711409684
 21
-104.3369882876212
 31
-3.0
  0
LINE
  5
38
330
17
100
AcDbEntity
  8
0
100
AcDbLine
 10
-38.48443711409706
 20
-104.33698828762135
 30
-3.0000000000000004
 11
-38.41003641854769
 21
-104.47153589155161
 31
-3.0000000000000004
  0
LINE
  5
39
330
17
100
AcDbEntity
  8
0
100
AcDbLine
 10
-23.72704780482144
 20
-97.6247458563684
 30
-3.0
 11
-38.41003641854755
 21
-104.47153589155126
 31
-3.0
  0
LINE
  5
3A
330
17
100
AcDbEntity
  8
0
100
AcDbLine
 10
-23.72704780482145
 20
-97.62474585636839
 30
-3.0
 11
-22.460410874553578
 21
-96.15274535711602
 31
-3.0
  0
LINE
  5
3B
330
17
100
AcDbEntity
  8
0
100
AcDbLine
 10
-19.36800527308319
 20
-76.90967019794061
 30
-3.0
 11
-22.46041087455358
 21
-96.15274535711603
 31
-3.0
  0
LINE
  5
3C
330
17
100
AcDbEntity
  8
0
100
AcDbLine
 10
-19.368005273083195
 20
-76.90967019794061
 30
-3.0
 11
-6.44958710173832
 21
-67.34012382412718
 31
-3.0
  0
LINE
  5
3D
330
17
100
AcDbEntity
  8
0
100
AcDbLine
 10
10.431649625429767
 20
-67.34012382412719
 30
-3.0
 11
-6.449587101738317
 21
-67.34012382412719
 31
-3.0
  0
LINE
  5
3E
330
17
100
AcDbEntity
  8
0
100
AcDbLine
 10
14.885061167258865
 20
-73.34012382412718
 30
-3.0
 11
10.431649625429767
 21
-67.34012382412718
 31
-3.0
  0
LINE
  5
3F
330
17
100
AcDbEntity
  8
0
100
AcDbLine
 10
14.885061167258861
 20
-73.34012382412716
 30
-3.0
 11
53.012204250535945
 21
-73.34012382412716
 31
-3.0
  0
LINE
  5
40
330
17
100
AcDbEntity
  8
0
100
AcDbLine
 10
53.01220425053595
 20
-73.34012382412718
 30
-3.0
 11
62.12016664295807
 21
-64.24685476250039
 31
-3.0
  0
LINE
  5
41
330
17
100
AcDbEntity
  8
0
100
AcDbLine
 10
62.12016664295808
 20
-64.24685476250039
 30
-3.0
 11
62.39985782345464
 21
-61.94685652435901
 31
-3.0
  0
LINE
  5
42
330
17
100
AcDbEntity
  8
0
100
AcDbLine
 10
61.7855332071846
 20
-46.79140808831437
 30
-3.0
 11
62.3998578234546
 21
-61.94685652435901
 31
-3.0
  0
LINE
  5
43
330
17
100
AcDbEntity
  8
0
100
AcDbLine
 10
61.571129333787596
 20
-39.41884458383188
 30
-3.0
 11
61.78553320718461
 21
-46.79140808831437
 31
-3.0
  0
LINE
  5
44
330
17
100
AcDbEntity
  8
0
100
AcDbLine
 10
61.36134510515646
 20
-28.267414412673617
 30
-3.0
 11
61.571129333787574
 21
-39.418844583831884
 31
-3.0
  0
LINE
  5
45
330
17
100
AcDbEntity
  8
0
100
AcDbLine
 10
60.81388698971226
 20
-22.215974314862837
 30
-3.000000000000001
 11
61.36134510515646
 21
-28.267414412673624
 31
-3.000000000000001
  0
LINE
  5
46
330
17
100
AcDbEntity
  8
0
100
AcDbLine
 10
60.81388698971228
 20
-22.215974314862834
 30
-3.0000000000000004
 11
60.46830802441367
 21
-14.7
 31
-3.0000000000000004
  0
LINE
  5
47
330
17
100
AcDbEntity
  8
0
100
AcDbLine
 10
60.46830802441366
 20
2.6999999999999993
 30
-2.9999999999999996
 11
60.46830802441366
 21
-14.7
 31
-2.9999999999999996
  0
LINE
  5
48
330
17
100
AcDbEntity
  8
0
100
AcDbLine
 10
60.46830802441368
 20
2.6999999999999993
 30
-3.000000000000001
 11
60.81388698971229
 21
10.215974314862837
 31
-3.000000000000001
  0
LINE
  5
49
330
17
100
AcDbEntity
  8
0
100
AcDbLine
 10
60.813886989712266
 20
10.215974314862835
 30
-3.000000000000001
 11
61.36134510515647
 21
16.267414412673617
 31
-3.000000000000001
  0
LINE
  5
4A
330
17
100
AcDbEntity
  8
0
100
AcDbLine
 10
61.57294646408638
 20
27.515437172184118
 30
-3.0
 11
61.361345105156786
 21
16.26741441267361
 31
-3.0
  0
LINE
  5
4B
330
17
100
AcDbEntity
  8
0
100
AcDbLine
 10
61.57294646408639
 20
27.515437172184114
 30
-3.0
 11
61.36134510515648
 21
28.32300744346256
 31
-3.0
  0
LINE
  5
4C
330
17
100
AcDbEntity
  8
0
100
AcDbLine
 10
61.361345105156474
 20
28.323007443462565
 30
-3.0
 11
57.341374820930696
 21
32.98714272775008
 31
-3.0
  0
LINE
  5
4D
330
17
100
AcDbEntity
  8
0
100
AcDbLine
 10
57.341374820930696
 20
32.987142727750076
 30
-3.0
 11
51.97523306778452
 21
38.84822557409144
 31
-3.0
  0
LINE
  5
4E
330
17
100
AcDbEntity
  8
0
100
AcDbLine
 10
12.666696910076315
 20
38.84822557409142
 30
-3.0
 11
51.97523306778452
 21
38.84822557409142
 31
-3.0
  0
LINE
  5
4F
330
17
100
AcDbEntity
  8
0
100
AcDbLine
 10
6.949022123509113
 20
44.84822557409143
 30
-3.0
 11
12.666696910076322
 21
38.84822557409143
 31
-3.0
  0
LINE
  5
50
330
17
100
AcDbEntity
  8
0
100
AcDbLine
 10
6.949022123509106
 20
44.84822557409143
 30
-3.0
 11
-10.029233205539253
 21
44.84822557409143
 31
-3.0
  0
LINE
  5
51
330
17
100
AcDbEntity
  8
0
100
AcDbLine
 10
-15.528885625044127
 20
47.66822557409142
 30
-3.0
 11
-10.029233205539256
 21
44.84822557409142
 31
-3.0
  0
LINE
  5
52
330
17
100
AcDbEntity
  8
0
100
AcDbLine
 10
-32.167415171774955
 20
47.66822557409142
 30
-3.0
 11
-15.528885625044126
 21
47.66822557409142
 31
-3.0
  0
LINE
  5
53
330
17
100
AcDbEntity
  8
0
100
AcDbLine
 10
-35.352216333475006
 20
44.848225574091444
 30
-3.0
 11
-32.16741517177497
 21
47.668225574091444
 31
-3.0
  0
LINE
  5
54
330
17
100
AcDbEntity
  8
0
100
AcDbLine
 10
-70.74981049424352
 20
44.84822557409142
 30
-3.0
 11
-35.35221633347499
 21
44.84822557409142
 31
-3.0
  0
LINE
  5
55
330
17
100
AcDbEntity
  8
0
100
AcDbLine
 10
-70.74981049424352
 20
44.84822557409143
 30
-3.0
 11
-72.0508729303461
 21
41.32542503035664
 31
-3.0
  0
LINE
  5
56
330
17
100
AcDbEntity
  8
0
100
AcDbLine
 10
-81.55087293034613
 20
30.825425030356655
 30
-3.0
 11
-72.05087293034612
 21
41.32542503035667
 31
-3.0
  0
LINE
  5
57
330
17
100
AcDbEntity
  8
0
100
AcDbLine
 10
-81.5508729303461
 20
30.825425030356637
 30
-3.0
 11
-83.74852918439746
 21
13.92172206871564
 31
-3.0
  0
LINE
  5
58
330
17
100
AcDbEntity
  8
0
100
AcDbLine
 10
-84.07569700550017
 20
8.800000000000002
 30
-3.0
 11
-83.74852918439746
 21
13.921722068715642
 31
-3.0
  0
LINE
  5
59
330
17
100
AcDbEntity
  8
0
100
AcDbLine
 10
-84.07569700550017
 20
8.8
 30
-3.0
 11
-84.07569700550017
 21
-8.8
 31
-3.0
  0
LINE
  5
5A
330
17
100
AcDbEntity
  8
0
100
AcDbLine
 10
-84.07569700550016
 20
-8.799999999999999
 30
-3.0
 11
-83.74852918439744
 21
-13.921722068715638
 31
-3.0
  0
LINE
  5
5B
330
17
100
AcDbEntity
  8
0
100
AcDbLine
 10
-81.55087293034612
 20
-30.82542503035664
 30
-3.0
 11
-83.74852918439747
 21
-13.921722068715642
 31
-3.0
  0
LINE
  5
5C
330
17
100
AcDbEntity
  8
0
100
AcDbLine
 10
-81.5508729303461
 20
-30.82542503035664
 30
-3.0000000000000036
 11
-80.5916653759259
 21
-35.598110790401066
 31
-3.0000000000000036
  0
LINE
  5
5D
330
17
100
AcDbEntity
  8
0
100
AcDbLine
 10
-76.34611925818007
 20
-50.753559226445724
 30
-3.0
 11
-80.59166537592594
 21
-35.59811079040107
 31
-3.0
  0
CIRCLE
  5
5E
330
17
100
AcDbEntity
  8
0
100
AcDbCircle
 10
-49.15166957162412
 20
-104.70355922644569
 30
-3.0
 40
3.0
  0
CIRCLE
  5
5F
330
17
100
AcDbEntity
  8
0
100
AcDbCircle
 10
-73.09970105737177
 20
-47.323573549536135
 30
-3.0
 40
3.0
  0
CIRCLE
  5
60
330
17
100
AcDbEntity
  8
0
100
AcDbCircle
 10
1.167002847522349
 20
-61.45114957469267
 30
-3.0
 40
3.0
  0
CIRCLE
  5
61
330
17
100
AcDbEntity
  8
0
100
AcDbCircle
 10
57.06601346848838
 20
-52.2058560221102
 30
-3.0
 40
3.0
  0
CIRCLE
  5
62
330
17
100
AcDbEntity
  8
0
100
AcDbCircle
 10
56.066013468488386
 20
20.205856022110215
 30
-3.0
 40
3.0
  0
CIRCLE
  5
63
330
17
100
AcDbEntity
  8
0
100
AcDbCircle
 10
-78.09970105737175
 20
22.323573549536135
 30
-3.0
 40
3.0
  0
CIRCLE
  5
64
330
17
100
AcDbEntity
  8
0
100
AcDbCircle
 10
-1.9681175242810964
 20
39.00437397878126
 30
-3.0
 40
3.0
  0
LINE
  5
65
330
17
100
AcDbEntity
  8
0
100
AcDbLine
 10
-75.21322722672303
 20
-56.201526920860786
 30
-3.0
 11
-75.21322722672303
 21
-56.201526920860786
 31
0.0
  0
LINE
  5
66
330
17
100
AcDbEntity
  8
0
100
AcDbLine
 10
-76.34611925818
 20
-50.7535592264457
 30
-3.0
 11
-76.34611925818
 21
-50.7535592264457
 31
0.0
  0
LINE
  5
67
330
17
100
AcDbEntity
  8
0
100
AcDbLine
 10
-75.21322722672305
 20
-56.201526920860786
 30
0.0
 11
-76.34611925818
 21
-50.7535592264457
 31
0.0
  0
LINE
  5
68
330
17
100
AcDbEntity
  8
0
100
AcDbLine
 10
-83.57368925884509
 20
-62.05558545866907
 30
-3.0
 11
-83.57368925884509
 21
-62.05558545866907
 31
0.0
  0
LINE
  5
69
330
17
100
AcDbEntity
  8
0
100
AcDbLine
 10
-83.57368925884563
 20
-62.05558545866833
 30
-8.881784197001252e-16
 11
-75.21322722672303
 21
-56.201526920860786
 31
-8.881784197001252e-16
  0
LINE
  5
6A
330
17
100
AcDbEntity
  8
0
100
AcDbLine
 10
-80.5916653759259
 20
-35.598110790401066
 30
-3.0
 11
-80.5916653759259
 21
-35.598110790401066
 31
0.0
  0
LINE
  5
6B
330
17
100
AcDbEntity
  8
0
100
AcDbLine
 10
-76.34611925818007
 20
-50.753559226445724
 30
0.0
 11
-80.59166537592594
 21
-35.59811079040107
 31
0.0
  0
LINE
  5
6C
330
17
100
AcDbEntity
  8
0
100
AcDbLine
 10
-85.28374581438777
 20
-63.83996613171839
 30
-3.0
 11
-85.28374581438777
 21
-63.83996613171839
 31
0.0
  0
LINE
  5
6D
330
17
100
AcDbEntity
  8
0
100
AcDbLine
 10
-83.57368925884509
 20
-62.05558545866908
 30
0.0
 11
-85.28374581438777
 21
-63.8399661317184
 31
0.0
  0
LINE
  5
6E
330
17
100
AcDbEntity
  8
0
100
AcDbLine
 10
-81.5508729303461
 20
-30.825425030356637
 30
-3.0
 11
-81.5508729303461
 21
-30.825425030356637
 31
0.0
  0
LINE
  5
6F
330
17
100
AcDbEntity
  8
0
100
AcDbLine
 10
-81.5508729303461
 20
-30.82542503035664
 30
-3.552713678800501e-15
 11
-80.5916653759259
 21
-35.598110790401066
 31
-3.552713678800501e-15
  0
LINE
  5
70
330
17
100
AcDbEntity
  8
0
100
AcDbLine
 10
-85.41721966272169
 20
-76.68133963371656
 30
-3.0
 11
-85.41721966272169
 21
-76.68133963371656
 31
0.0
  0
LINE
  5
71
330
17
100
AcDbEntity
  8
0
100
AcDbLine
 10
-85.41721966272169
 20
-76.68133963371656
 30
0.0
 11
-85.28374581438777
 21
-63.83996613171839
 31
0.0
  0
LINE
  5
72
330
17
100
AcDbEntity
  8
0
100
AcDbLine
 10
-83.74852918439746
 20
-13.92172206871564
 30
-3.0
 11
-83.74852918439746
 21
-13.92172206871564
 31
0.0
  0
LINE
  5
73
330
17
100
AcDbEntity
  8
0
100
AcDbLine
 10
-81.55087293034612
 20
-30.82542503035664
 30
0.0
 11
-83.74852918439747
 21
-13.921722068715642
 31
0.0
  0
LINE
  5
74
330
17
100
AcDbEntity
  8
0
100
AcDbLine
 10
-74.64057082593109
 20
-90.38197239362506
 30
-3.0
 11
-74.64057082593109
 21
-90.38197239362506
 31
0.0
  0
LINE
  5
75
330
17
100
AcDbEntity
  8
0
100
AcDbLine
 10
-74.64057082593264
 20
-90.3819723936263
 30
0.0
 11
-85.4172196627217
 21
-76.68133963371656
 31
0.0
  0
LINE
  5
76
330
17
100
AcDbEntity
  8
0
100
AcDbLine
 10
-84.07569700550017
 20
-8.8
 30
-3.0
 11
-84.07569700550017
 21
-8.8
 31
0.0
  0
LINE
  5
77
330
17
100
AcDbEntity
  8
0
100
AcDbLine
 10
-84.07569700550016
 20
-8.799999999999999
 30
0.0
 11
-83.74852918439744
 21
-13.921722068715638
 31
0.0
  0
LINE
  5
78
330
17
100
AcDbEntity
  8
0
100
AcDbLine
 10
-72.90627908573184
 20
-94.32357519013105
 30
-3.0
 11
-72.90627908573184
 21
-94.32357519013105
 31
0.0
  0
LINE
  5
79
330
17
100
AcDbEntity
  8
0
100
AcDbLine
 10
-72.90627908573184
 20
-94.32357519013105
 30
0.0
 11
-74.64057082593109
 21
-90.38197239362506
 31
0.0
  0
LINE
  5
7A
330
17
100
AcDbEntity
  8
0
100
AcDbLine
 10
-84.07569700550017
 20
8.8
 30
-3.0
 11
-84.07569700550017
 21
8.8
 31
0.0
  0
LINE
  5
7B
330
17
100
AcDbEntity
  8
0
100
AcDbLine
 10
-84.07569700550017
 20
8.8
 30
0.0
 11
-84.07569700550017
 21
-8.8
 31
0.0
  0
LINE
  5
7C
330
17
100
AcDbEntity
  8
0
100
AcDbLine
 10
-62.023934176426565
 20
-108.07160746908886
 30
-3.0
 11
-62.023934176426565
 21
-108.07160746908886
 31
0.0
  0
LINE
  5
7D
330
17
100
AcDbEntity
  8
0
100
AcDbLine
 10
-72.90627908573184
 20
-94.32357519013104
 30
0.0
 11
-62.02393417642848
 21
-108.07160746909038
 31
0.0
  0
LINE
  5
7E
330
17
100
AcDbEntity
  8
0
100
AcDbLine
 10
-83.74852918439746
 20
13.92172206871564
 30
-3.0
 11
-83.74852918439746
 21
13.92172206871564
 31
0.0
  0
LINE
  5
7F
330
17
100
AcDbEntity
  8
0
100
AcDbLine
 10
-84.07569700550017
 20
8.800000000000002
 30
0.0
 11
-83.74852918439746
 21
13.921722068715642
 31
0.0
  0
LINE
  5
80
330
17
100
AcDbEntity
  8
0
100
AcDbLine
 10
-49.08010182161026
 20
-111.75615258816467
 30
-3.0
 11
-49.08010182161026
 21
-111.75615258816467
 31
0.0
  0
LINE
  5
81
330
17
100
AcDbEntity
  8
0
100
AcDbLine
 10
-49.08010182161028
 20
-111.7561525881647
 30
4.440892098500626e-16
 11
-62.02393417642658
 21
-108.07160746908889
 31
4.440892098500626e-16
  0
LINE
  5
82
330
17
100
AcDbEntity
  8
0
100
AcDbLine
 10
-81.5508729303461
 20
30.825425030356637
 30
-3.0
 11
-81.5508729303461
 21
30.825425030356637
 31
0.0
  0
LINE
  5
83
330
17
100
AcDbEntity
  8
0
100
AcDbLine
 10
-81.5508729303461
 20
30.825425030356637
 30
0.0
 11
-83.74852918439746
 21
13.92172206871564
 31
0.0
  0
LINE
  5
84
330
17
100
AcDbEntity
  8
0
100
AcDbLine
 10
-38.48443711409706
 20
-104.33698828762135
 30
-3.0
 11
-38.48443711409706
 21
-104.33698828762135
 31
0.0
  0
LINE
  5
85
330
17
100
AcDbEntity
  8
0
100
AcDbLine
 10
-49.08010182161026
 20
-111.75615258816467
 30
0.0
 11
-38.48443711409684
 21
-104.3369882876212
 31
0.0
  0
LINE
  5
86
330
17
100
AcDbEntity
  8
0
100
AcDbLine
 10
-72.0508729303461
 20
41.32542503035664
 30
-3.0
 11
-72.0508729303461
 21
41.32542503035664
 31
0.0
  0
LINE
  5
87
330
17
100
AcDbEntity
  8
0
100
AcDbLine
 10
-81.55087293034613
 20
30.825425030356655
 30
0.0
 11
-72.05087293034612
 21
41.32542503035667
 31
0.0
  0
LINE
  5
88
330
17
100
AcDbEntity
  8
0
100
AcDbLine
 10
-38.41003641854745
 20
-104.47153589155147
 30
-3.0
 11
-38.41003641854745
 21
-104.47153589155147
 31
0.0
  0
LINE
  5
89
330
17
100
AcDbEntity
  8
0
100
AcDbLine
 10
-38.48443711409706
 20
-104.33698828762135
 30
-4.440892098500626e-16
 11
-38.41003641854769
 21
-104.47153589155161
 31
-4.440892098500626e-16
  0
LINE
  5
8A
330
17
100
AcDbEntity
  8
0
100
AcDbLine
 10
-70.74981049424352
 20
44.84822557409143
 30
-3.0
 11
-70.74981049424352
 21
44.84822557409143
 31
0.0
  0
LINE
  5
8B
330
17
100
AcDbEntity
  8
0
100
AcDbLine
 10
-70.74981049424352
 20
44.84822557409143
 30
0.0
 11
-72.0508729303461
 21
41.32542503035664
 31
0.0
  0
LINE
  5
8C
330
17
100
AcDbEntity
  8
0
100
AcDbLine
 10
-23.727047804821453
 20
-97.62474585636839
 30
-3.0
 11
-23.727047804821453
 21
-97.62474585636839
 31
0.0
  0
LINE
  5
8D
330
17
100
AcDbEntity
  8
0
100
AcDbLine
 10
-23.72704780482144
 20
-97.6247458563684
 30
0.0
 11
-38.41003641854755
 21
-104.47153589155126
 31
0.0
  0
LINE
  5
8E
330
17
100
AcDbEntity
  8
0
100
AcDbLine
 10
-35.35221633347499
 20
44.84822557409143
 30
-3.0
 11
-35.35221633347499
 21
44.84822557409143
 31
0.0
  0
LINE
  5
8F
330
17
100
AcDbEntity
  8
0
100
AcDbLine
 10
-70.74981049424352
 20
44.84822557409142
 30
0.0
 11
-35.35221633347499
 21
44.84822557409142
 31
0.0
  0
LINE
  5
90
330
17
100
AcDbEntity
  8
0
100
AcDbLine
 10
-22.46041087455358
 20
-96.15274535711602
 30
-3.0
 11
-22.46041087455358
 21
-96.15274535711602
 31
0.0
  0
LINE
  5
91
330
17
100
AcDbEntity
  8
0
100
AcDbLine
 10
-23.72704780482145
 20
-97.62474585636839
 30
0.0
 11
-22.460410874553578
 21
-96.15274535711602
 31
0.0
  0
LINE
  5
92
330
17
100
AcDbEntity
  8
0
100
AcDbLine
 10
-32.167415171774955
 20
47.66822557409143
 30
-3.0
 11
-32.167415171774955
 21
47.66822557409143
 31
0.0
  0
LINE
  5
93
330
17
100
AcDbEntity
  8
0
100
AcDbLine
 10
-35.352216333475006
 20
44.848225574091444
 30
0.0
 11
-32.16741517177497
 21
47.668225574091444
 31
0.0
  0
LINE
  5
94
330
17
100
AcDbEntity
  8
0
100
AcDbLine
 10
-19.368005273083195
 20
-76.90967019794061
 30
-3.0
 11
-19.368005273083195
 21
-76.90967019794061
 31
0.0
  0
LINE
  5
95
330
17
100
AcDbEntity
  8
0
100
AcDbLine
 10
-19.36800527308319
 20
-76.90967019794061
 30
0.0
 11
-22.46041087455358
 21
-96.15274535711603
 31
0.0
  0
LINE
  5
96
330
17
100
AcDbEntity
  8
0
100
AcDbLine
 10
-15.528885625044124
 20
47.66822557409143
 30
-3.0
 11
-15.528885625044124
 21
47.66822557409143
 31
0.0
  0
LINE
  5
97
330
17
100
AcDbEntity
  8
0
100
AcDbLine
 10
-32.167415171774955
 20
47.66822557409142
 30
0.0
 11
-15.528885625044126
 21
47.66822557409142
 31
0.0
  0
LINE
  5
98
330
17
100
AcDbEntity
  8
0
100
AcDbLine
 10
-6.449587101738315
 20
-67.34012382412718
 30
-3.0
 11
-6.449587101738315
 21
-67.34012382412718
 31
0.0
  0
LINE
  5
99
330
17
100
AcDbEntity
  8
0
100
AcDbLine
 10
-19.368005273083195
 20
-76.90967019794061
 30
0.0
 11
-6.44958710173832
 21
-67.34012382412718
 31
0.0
  0
LINE
  5
9A
330
17
100
AcDbEntity
  8
0
100
AcDbLine
 10
-10.029233205539253
 20
44.84822557409143
 30
-3.0
 11
-10.029233205539253
 21
44.84822557409143
 31
0.0
  0
LINE
  5
9B
330
17
100
AcDbEntity
  8
0
100
AcDbLine
 10
-15.528885625044127
 20
47.66822557409142
 30
0.0
 11
-10.029233205539256
 21
44.84822557409142
 31
0.0
  0
LINE
  5
9C
330
17
100
AcDbEntity
  8
0
100
AcDbLine
 10
10.431649625429769
 20
-67.34012382412718
 30
-3.0
 11
10.431649625429769
 21
-67.34012382412718
 31
0.0
  0
LINE
  5
9D
330
17
100
AcDbEntity
  8
0
100
AcDbLine
 10
10.431649625429767
 20
-67.34012382412719
 30
0.0
 11
-6.449587101738317
 21
-67.34012382412719
 31
0.0
  0
LINE
  5
9E
330
17
100
AcDbEntity
  8
0
100
AcDbLine
 10
6.949022123509108
 20
44.84822557409143
 30
-3.0
 11
6.949022123509108
 21
44.84822557409143
 31
0.0
  0
LINE
  5
9F
330
17
100
AcDbEntity
  8
0
100
AcDbLine
 10
6.949022123509106
 20
44.84822557409143
 30
0.0
 11
-10.029233205539253
 21
44.84822557409143
 31
0.0
  0
LINE
  5
A0
330
17
100
AcDbEntity
  8
0
100
AcDbLine
 10
14.885061167258863
 20
-73.34012382412718
 30
-3.0
 11
14.885061167258863
 21
-73.34012382412718
 31
0.0
  0
LINE
  5
A1
330
17
100
AcDbEntity
  8
0
100
AcDbLine
 10
14.885061167258865
 20
-73.34012382412718
 30
0.0
 11
10.431649625429767
 21
-67.34012382412718
 31
0.0
  0
LINE
  5
A2
330
17
100
AcDbEntity
  8
0
100
AcDbLine
 10
12.666696910076315
 20
38.84822557409143
 30
-3.0
 11
12.666696910076315
 21
38.84822557409143
 31
0.0
  0
LINE
  5
A3
330
17
100
AcDbEntity
  8
0
100
AcDbLine
 10
6.949022123509113
 20
44.84822557409143
 30
0.0
 11
12.666696910076322
 21
38.84822557409143
 31
0.0
  0
LINE
  5
A4
330
17
100
AcDbEntity
  8
0
100
AcDbLine
 10
53.01220425053595
 20
-73.34012382412718
 30
-3.0
 11
53.01220425053595
 21
-73.34012382412718
 31
0.0
  0
LINE
  5
A5
330
17
100
AcDbEntity
  8
0
100
AcDbLine
 10
14.885061167258861
 20
-73.34012382412716
 30
0.0
 11
53.012204250535945
 21
-73.34012382412716
 31
0.0
  0
LINE
  5
A6
330
17
100
AcDbEntity
  8
0
100
AcDbLine
 10
51.97523306778452
 20
38.84822557409143
 30
-3.0
 11
51.97523306778452
 21
38.84822557409143
 31
0.0
  0
LINE
  5
A7
330
17
100
AcDbEntity
  8
0
100
AcDbLine
 10
12.666696910076315
 20
38.84822557409142
 30
0.0
 11
51.97523306778452
 21
38.84822557409142
 31
0.0
  0
LINE
  5
A8
330
17
100
AcDbEntity
  8
0
100
AcDbLine
 10
62.12016664295806
 20
-64.24685476250039
 30
-3.0
 11
62.12016664295806
 21
-64.24685476250039
 31
0.0
  0
LINE
  5
A9
330
17
100
AcDbEntity
  8
0
100
AcDbLine
 10
53.01220425053595
 20
-73.34012382412718
 30
0.0
 11
62.12016664295807
 21
-64.24685476250039
 31
0.0
  0
LINE
  5
AA
330
17
100
AcDbEntity
  8
0
100
AcDbLine
 10
57.341374820930696
 20
32.987142727750076
 30
-3.0
 11
57.341374820930696
 21
32.987142727750076
 31
0.0
  0
LINE
  5
AB
330
17
100
AcDbEntity
  8
0
100
AcDbLine
 10
57.341374820930696
 20
32.987142727750076
 30
0.0
 11
51.97523306778452
 21
38.84822557409144
 31
0.0
  0
LINE
  5
AC
330
17
100
AcDbEntity
  8
0
100
AcDbLine
 10
62.39985782345462
 20
-61.94685652435901
 30
-3.0
 11
62.39985782345462
 21
-61.94685652435901
 31
0.0
  0
LINE
  5
AD
330
17
100
AcDbEntity
  8
0
100
AcDbLine
 10
62.12016664295808
 20
-64.24685476250039
 30
0.0
 11
62.39985782345464
 21
-61.94685652435901
 31
0.0
  0
LINE
  5
AE
330
17
100
AcDbEntity
  8
0
100
AcDbLine
 10
61.36134510515647
 20
28.323007443462558
 30
-3.0
 11
61.36134510515647
 21
28.323007443462558
 31
0.0
  0
LINE
  5
AF
330
17
100
AcDbEntity
  8
0
100
AcDbLine
 10
61.361345105156474
 20
28.323007443462565
 30
0.0
 11
57.341374820930696
 21
32.98714272775008
 31
0.0
  0
LINE
  5
B0
330
17
100
AcDbEntity
  8
0
100
AcDbLine
 10
61.7855332071846
 20
-46.79140808831437
 30
-3.0
 11
61.7855332071846
 21
-46.79140808831437
 31
0.0
  0
LINE
  5
B1
330
17
100
AcDbEntity
  8
0
100
AcDbLine
 10
61.7855332071846
 20
-46.79140808831437
 30
0.0
 11
62.3998578234546
 21
-61.94685652435901
 31
0.0
  0
LINE
  5
B2
330
17
100
AcDbEntity
  8
0
100
AcDbLine
 10
61.57294646408638
 20
27.515437172184114
 30
-3.0
 11
61.57294646408638
 21
27.515437172184114
 31
0.0
  0
LINE
  5
B3
330
17
100
AcDbEntity
  8
0
100
AcDbLine
 10
61.57294646408639
 20
27.515437172184114
 30
0.0
 11
61.36134510515648
 21
28.32300744346256
 31
0.0
  0
LINE
  5
B4
330
17
100
AcDbEntity
  8
0
100
AcDbLine
 10
61.57112933378758
 20
-39.41884458383188
 30
-3.0
 11
61.57112933378758
 21
-39.41884458383188
 31
0.0
  0
LINE
  5
B5
330
17
100
AcDbEntity
  8
0
100
AcDbLine
 10
61.571129333787596
 20
-39.41884458383188
 30
0.0
 11
61.78553320718461
 21
-46.79140808831437
 31
0.0
  0
LINE
  5
B6
330
17
100
AcDbEntity
  8
0
100
AcDbLine
 10
61.36134510515646
 20
16.267414412673617
 30
-3.0
 11
61.36134510515646
 21
16.267414412673617
 31
0.0
  0
LINE
  5
B7
330
17
100
AcDbEntity
  8
0
100
AcDbLine
 10
61.57294646408638
 20
27.515437172184118
 30
0.0
 11
61.361345105156786
 21
16.26741441267361
 31
0.0
  0
LINE
  5
B8
330
17
100
AcDbEntity
  8
0
100
AcDbLine
 10
61.36134510515646
 20
-28.267414412673617
 30
-3.0
 11
61.36134510515646
 21
-28.267414412673617
 31
0.0
  0
LINE
  5
B9
330
17
100
AcDbEntity
  8
0
100
AcDbLine
 10
61.36134510515646
 20
-28.267414412673617
 30
0.0
 11
61.571129333787574
 21
-39.418844583831884
 31
0.0
  0
LINE
  5
BA
330
17
100
AcDbEntity
  8
0
100
AcDbLine
 10
60.81388698971227
 20
10.215974314862835
 30
-3.0
 11
60.81388698971227
 21
10.215974314862835
 31
0.0
  0
LINE
  5
BB
330
17
100
AcDbEntity
  8
0
100
AcDbLine
 10
60.813886989712266
 20
10.215974314862835
 30
-8.881784197001252e-16
 11
61.36134510515647
 21
16.267414412673617
 31
-8.881784197001252e-16
  0
LINE
  5
BC
330
17
100
AcDbEntity
  8
0
100
AcDbLine
 10
60.81388698971227
 20
-22.215974314862834
 30
-3.0
 11
60.81388698971227
 21
-22.215974314862834
 31
0.0
  0
LINE
  5
BD
330
17
100
AcDbEntity
  8
0
100
AcDbLine
 10
60.81388698971226
 20
-22.215974314862837
 30
-8.881784197001252e-16
 11
61.36134510515646
 21
-28.267414412673624
 31
-8.881784197001252e-16
  0
LINE
  5
BE
330
17
100
AcDbEntity
  8
0
100
AcDbLine
 10
60.468308024413666
 20
2.6999999999999993
 30
-3.0
 11
60.468308024413666
 21
2.6999999999999993
 31
0.0
  0
LINE
  5
BF
330
17
100
AcDbEntity
  8
0
100
AcDbLine
 10
60.46830802441368
 20
2.6999999999999993
 30
-8.881784197001252e-16
 11
60.81388698971229
 21
10.215974314862837
 31
-8.881784197001252e-16
  0
LINE
  5
C0
330
17
100
AcDbEntity
  8
0
100
AcDbLine
 10
60.468308024413666
 20
-14.7
 30
-3.0
 11
60.468308024413666
 21
-14.7
 31
0.0
  0
LINE
  5
C1
330
17
100
AcDbEntity
  8
0
100
AcDbLine
 10
60.81388698971228
 20
-22.215974314862834
 30
-4.440892098500626e-16
 11
60.46830802441367
 21
-14.7
 31
-4.440892098500626e-16
  0
LINE
  5
C2
330
17
100
AcDbEntity
  8
0
100
AcDbLine
 10
60.46830802441366
 20
2.6999999999999993
 30
4.440892098500626e-16
 11
60.46830802441366
 21
-14.7
 31
4.440892098500626e-16
  0
LINE
  5
C3
330
17
100
AcDbEntity
  8
0
100
AcDbLine
 10
-46.15166957162412
 20
-104.70355922644569
 30
-3.0
 11
-46.15166957162412
 21
-104.70355922644569
 31
-2.25
  0
CIRCLE
  5
C4
330
17
100
AcDbEntity
  8
0
100
AcDbCircle
 10
-49.15166957162412
 20
-104.70355922644569
 30
-2.25
 40
3.0
  0
LINE
  5
C5
330
17
100
AcDbEntity
  8
0
100
AcDbLine
 10
-70.09970105737177
 20
-47.323573549536135
 30
-3.0
 11
-70.09970105737177
 21
-47.323573549536135
 31
-2.25
  0
CIRCLE
  5
C6
330
17
100
AcDbEntity
  8
0
100
AcDbCircle
 10
-73.09970105737177
 20
-47.323573549536135
 30
-2.25
 40
3.0
  0
LINE
  5
C7
330
17
100
AcDbEntity
  8
0
100
AcDbLine
 10
4.167002847522349
 20
-61.45114957469267
 30
-3.0
 11
4.167002847522349
 21
-61.45114957469267
 31
-2.25
  0
CIRCLE
  5
C8
330
17
100
AcDbEntity
  8
0
100
AcDbCircle
 10
1.167002847522349
 20
-61.45114957469267
 30
-2.25
 40
3.0
  0
LINE
  5
C9
330
17
100
AcDbEntity
  8
0
100
AcDbLine
 10
60.06601346848838
 20
-52.2058560221102
 30
-3.0
 11
60.06601346848838
 21
-52.2058560221102
 31
-2.25
  0
CIRCLE
  5
CA
330
17
100
AcDbEntity
  8
0
100
AcDbCircle
 10
57.06601346848838
 20
-52.2058560221102
 30
-2.25
 40
3.0
  0
LINE
  5
CB
330
17
100
AcDbEntity
  8
0
100
AcDbLine
 10
-75.09970105737175
 20
22.323573549536135
 30
-3.0
 11
-75.09970105737175
 21
22.323573549536135
 31
-2.25
  0
CIRCLE
  5
CC
330
17
100
AcDbEntity
  8
0
100
AcDbCircle
 10
-78.09970105737175
 20
22.323573549536135
 30
-2.25
 40
3.0
  0
LINE
  5
CD
330
17
100
AcDbEntity
  8
0
100
AcDbLine
 10
1.0318824757189036
 20
39.00437397878126
 30
-3.0
 11
1.0318824757189036
 21
39.00437397878126
 31
-2.25
  0
CIRCLE
  5
CE
330
17
100
AcDbEntity
  8
0
100
AcDbCircle
 10
-1.9681175242810964
 20
39.00437397878126
 30
-2.25
 40
3.0
  0
LINE
  5
CF
330
17
100
AcDbEntity
  8
0
100
AcDbLine
 10
59.066013468488386
 20
20.205856022110215
 30
-3.0
 11
59.066013468488386
 21
20.205856022110215
 31
-2.25
  0
CIRCLE
  5
D0
330
17
100
AcDbEntity
  8
0
100
AcDbCircle
 10
56.066013468488386
 20
20.205856022110215
 30
-2.25
 40
3.0
  0
CIRCLE
  5
D1
330
17
100
AcDbEntity
  8
0
100
AcDbCircle
 10
-49.15166957162414
 20
-104.7035592264457
 30
0.0
 40
1.55
  0
CIRCLE
  5
D2
330
17
100
AcDbEntity
  8
0
100
AcDbCircle
 10
-73.09970105737177
 20
-47.323573549536135
 30
0.0
 40
1.55
  0
CIRCLE
  5
D3
330
17
100
AcDbEntity
  8
0
100
AcDbCircle
 10
1.167002847522342
 20
-61.451149574692685
 30
0.0
 40
1.55
  0
CIRCLE
  5
D4
330
17
100
AcDbEntity
  8
0
100
AcDbCircle
 10
57.06601346848838
 20
-52.20585602211021
 30
0.0
 40
1.55
  0
CIRCLE
  5
D5
330
17
100
AcDbEntity
  8
0
100
AcDbCircle
 10
-78.09970105737177
 20
22.32357354953614
 30
0.0
 40
1.55
  0
CIRCLE
  5
D6
330
17
100
AcDbEntity
  8
0
100
AcDbCircle
 10
-1.9681175242811044
 20
39.00437397878126
 30
0.0
 40
1.55
  0
CIRCLE
  5
D7
330
17
100
AcDbEntity
  8
0
100
AcDbCircle
 10
56.06601346848838
 20
20.205856022110215
 30
0.0
 40
1.55
  0
CIRCLE
  5
D8
330
17
100
AcDbEntity
  8
0
100
AcDbCircle
 10
-49.15166957162414
 20
-104.7035592264457
 30
-2.25
 40
1.55
  0
CIRCLE
  5
D9
330
17
100
AcDbEntity
  8
0
100
AcDbCircle
 10
-73.09970105737177
 20
-47.323573549536135
 30
-2.25
 40
1.55
  0
CIRCLE
  5
DA
330
17
100
AcDbEntity
  8
0
100
AcDbCircle
 10
1.167002847522342
 20
-61.451149574692685
 30
-2.25
 40
1.55
  0
CIRCLE
  5
DB
330
17
100
AcDbEntity
  8
0
100
AcDbCircle
 10
57.06601346848838
 20
-52.20585602211021
 30
-2.25
 40
1.55
  0
CIRCLE
  5
DC
330
17
100
AcDbEntity
  8
0
100
AcDbCircle
 10
-78.09970105737177
 20
22.32357354953614
 30
-2.25
 40
1.55
  0
CIRCLE
  5
DD
330
17
100
AcDbEntity
  8
0
100
AcDbCircle
 10
-1.9681175242811044
 20
39.00437397878126
 30
-2.25
 40
1.55
  0
CIRCLE
  5
DE
330
17
100
AcDbEntity
  8
0
100
AcDbCircle
 10
56.06601346848838
 20
20.205856022110215
 30
-2.25
 40
1.55
  0
LINE
  5
DF
330
17
100
AcDbEntity
  8
0
100
AcDbLine
 10
-47.60166957162414
 20
-104.7035592264457
 30
-2.25
 11
-47.60166957162414
 21
-104.7035592264457
 31
0.0
  0
LINE
  5
E0
330
17
100
AcDbEntity
  8
0
100
AcDbLine
 10
-71.54970105737178
 20
-47.323573549536135
 30
-2.25
 11
-71.54970105737178
 21
-47.323573549536135
 31
0.0
  0
LINE
  5
E1
330
17
100
AcDbEntity
  8
0
100
AcDbLine
 10
2.717002847522342
 20
-61.451149574692685
 30
-2.25
 11
2.717002847522342
 21
-61.451149574692685
 31
0.0
  0
LINE
  5
E2
330
17
100
AcDbEntity
  8
0
100
AcDbLine
 10
58.616013468488376
 20
-52.20585602211021
 30
-2.25
 11
58.616013468488376
 21
-52.20585602211021
 31
0.0
  0
LINE
  5
E3
330
17
100
AcDbEntity
  8
0
100
AcDbLine
 10
-76.54970105737178
 20
22.32357354953614
 30
-2.25
 11
-76.54970105737178
 21
22.32357354953614
 31
0.0
  0
LINE
  5
E4
330
17
100
AcDbEntity
  8
0
100
AcDbLine
 10
-0.4181175242811044
 20
39.00437397878126
 30
-2.25
 11
-0.4181175242811044
 21
39.00437397878126
 31
0.0
  0
LINE
  5
E5
330
17
100
AcDbEntity
  8
0
100
AcDbLine
 10
57.616013468488376
 20
20.205856022110215
 30
-2.25
 11
57.616013468488376
 21
20.205856022110215
 31
0.0
  0
ENDSEC
  0
SECTION
  2
OBJECTS
  0
DICTIONARY
  5
A
330
0
100
AcDbDictionary
280
0
281
1
  3
ACAD_COLOR
350
B
  3
ACAD_GROUP
350
C
  3
ACAD_LAYOUT
350
D
  3
ACAD_MATERIAL
350
E
  3
ACAD_MLEADERSTYLE
350
F
  3
ACAD_MLINESTYLE
350
10
  3
ACAD_PLOTSETTINGS
350
11
  3
ACAD_PLOTSTYLENAME
350
12
  3
ACAD_SCALELIST
350
14
  3
ACAD_TABLESTYLE
350
15
  3
ACAD_VISUALSTYLE
350
16
  3
EZDXF_META
350
2D
  0
DICTIONARY
  5
B
330
A
100
AcDbDictionary
280
0
281
1
  0
DICTIONARY
  5
C
330
A
100
AcDbDictionary
280
0
281
1
  0
DICTIONARY
  5
D
330
A
100
AcDbDictionary
280
0
281
1
  3
Model
350
1A
  3
Layout1
350
1E
  0
DICTIONARY
  5
E
330
A
100
AcDbDictionary
280
0
281
1
  3
ByBlock
350
1F
  3
ByLayer
350
20
  3
Global
350
21
  0
DICTIONARY
  5
F
330
A
100
AcDbDictionary
280
0
281
1
  3
Standard
350
2C
  0
DICTIONARY
  5
10
330
A
100
AcDbDictionary
280
0
281
1
  3
Standard
350
22
  0
DICTIONARY
  5
11
330
A
100
AcDbDictionary
280
0
281
1
  0
ACDBDICTIONARYWDFLT
  5
12
330
A
100
AcDbDictionary
280
0
281
1
  3
Normal
350
13
100
AcDbDictionaryWithDefault
340
13
  0
ACDBPLACEHOLDER
  5
13
330
12
  0
DICTIONARY
  5
14
330
A
100
AcDbDictionary
280
0
281
1
  0
DICTIONARY
  5
15
330
A
100
AcDbDictionary
280
0
281
1
  0
DICTIONARY
  5
16
330
A
100
AcDbDictionary
280
0
281
1
  0
LAYOUT
  5
1A
330
D
100
AcDbPlotSettings
  1

  2
Adobe PDF
  4
A3
  6

 40
7.5
 41
20.0
 42
7.5
 43
20.0
 44
420.0
 45
297.0
 46
0.0
 47
0.0
 48
0.0
 49
0.0
140
0.0
141
0.0
142
1.0
143
1.0
 70
1024
 72
1
 73
0
 74
5
  7

 75
16
 76
0
 77
2
 78
300
147
1.0
148
0.0
149
0.0
100
AcDbLayout
  1
Model
 70
1
 71
0
 10
0.0
 20
0.0
 11
420.0
 21
297.0
 12
0.0
 22
0.0
 32
0.0
 14
1e+20
 24
1e+20
 34
1e+20
 15
-1e+20
 25
-1e+20
 35
-1e+20
146
0.0
 13
0.0
 23
0.0
 33
0.0
 16
1.0
 26
0.0
 36
0.0
 17
0.0
 27
1.0
 37
0.0
 76
1
330
17
  0
LAYOUT
  5
1E
330
D
100
AcDbPlotSettings
  1

  2
Adobe PDF
  4
A3
  6

 40
7.5
 41
20.0
 42
7.5
 43
20.0
 44
420.0
 45
297.0
 46
0.0
 47
0.0
 48
0.0
 49
0.0
140
0.0
141
0.0
142
1.0
143
1.0
 70
0
 72
1
 73
0
 74
5
  7

 75
16
 76
0
 77
2
 78
300
147
1.0
148
0.0
149
0.0
100
AcDbLayout
  1
Layout1
 70
1
 71
1
 10
0.0
 20
0.0
 11
420.0
 21
297.0
 12
0.0
 22
0.0
 32
0.0
 14
1e+20
 24
1e+20
 34
1e+20
 15
-1e+20
 25
-1e+20
 35
-1e+20
146
0.0
 13
0.0
 23
0.0
 33
0.0
 16
1.0
 26
0.0
 36
0.0
 17
0.0
 27
1.0
 37
0.0
 76
1
330
1B
  0
MATERIAL
  5
1F
102
{ACAD_REACTORS
330
E
102
}
330
E
100
AcDbMaterial
  1
ByBlock
  2

 70
0
 40
1.0
 71
1
 41
1.0
 91
-1023410177
 42
1.0
 72
1
  3

 73
1
 74
1
 75
1
 44
0.5
 73
0
 45
1.0
 46
1.0
 77
1
  4

 78
1
 79
1
170
1
 48
1.0
171
1
  6

172
1
173
1
174
1
140
1.0
141
1.0
175
1
  7

176
1
177
1
178
1
143
1.0
179
1
  8

270
1
271
1
272
1
145
1.0
146
1.0
273
1
  9

274
1
275
1
276
1
 42
1.0
 72
1
  3

 73
1
 74
1
 75
1
 94
63
  0
MATERIAL
  5
20
102
{ACAD_REACTORS
330
E
102
}
330
E
100
AcDbMaterial
  1
ByLayer
  2

 70
0
 40
1.0
 71
1
 41
1.0
 91
-1023410177
 42
1.0
 72
1
  3

 73
1
 74
1
 75
1
 44
0.5
 73
0
 45
1.0
 46
1.0
 77
1
  4

 78
1
 79
1
170
1
 48
1.0
171
1
  6

172
1
173
1
174
1
140
1.0
141
1.0
175
1
  7

176
1
177
1
178
1
143
1.0
179
1
  8

270
1
271
1
272
1
145
1.0
146
1.0
273
1
  9

274
1
275
1
276
1
 42
1.0
 72
1
  3

 73
1
 74
1
 75
1
 94
63
  0
MATERIAL
  5
21
102
{ACAD_REACTORS
330
E
102
}
330
E
100
AcDbMaterial
  1
Global
  2

 70
0
 40
1.0
 71
1
 41
1.0
 91
-1023410177
 42
1.0
 72
1
  3

 73
1
 74
1
 75
1
 44
0.5
 73
0
 45
1.0
 46
1.0
 77
1
  4

 78
1
 79
1
170
1
 48
1.0
171
1
  6

172
1
173
1
174
1
140
1.0
141
1.0
175
1
  7

176
1
177
1
178
1
143
1.0
179
1
  8

270
1
271
1
272
1
145
1.0
146
1.0
273
1
  9

274
1
275
1
276
1
 42
1.0
 72
1
  3

 73
1
 74
1
 75
1
 94
63
  0
MLINESTYLE
  5
22
102
{ACAD_REACTORS
330
10
102
}
330
10
100
AcDbMlineStyle
  2
Standard
 70
0
  3

 62
256
 51
90.0
 52
90.0
 71
2
 49
0.5
 62
256
  6
BYLAYER
 49
-0.5
 62
256
  6
BYLAYER
  0
MLEADERSTYLE
  5
2C
102
{ACAD_REACTORS
330
F
102
}
330
F
100
AcDbMLeaderStyle
179
2
170
2
171
1
172
0
 90
2
 40
0.0
 41
0.0
173
1
 91
-1056964608
 92
-2
290
1
 42
2.0
291
1
 43
8.0
  3
Standard
 44
4.0
300

342
29
174
1
175
1
176
0
178
1
 93
-1056964608
 45
4.0
292
0
297
0
 46
4.0
 94
-1056964608
 47
1.0
 49
1.0
140
1.0
294
1
141
0.0
177
0
142
1.0
295
0
296
0
143
3.75
271
0
272
9
273
9
  0
DICTIONARY
  5
2D
330
A
100
AcDbDictionary
281
1
  3
CREATED_BY_EZDXF
350
2E
  3
WRITTEN_BY_EZDXF
350
E9
  0
DICTIONARYVAR
  5
2E
330
2D
100
DictionaryVariables
280
0
  1
1.0.3 @ 2023-06-05T20:36:27.579321+00:00
  0
DICTIONARYVAR
  5
E9
330
2D
100
DictionaryVariables
280
0
  1
1.0.3 @ 2023-06-05T20:36:27.594040+00:00
  0
ENDSEC
  0
EOF
