  0
SECTION
  2
HEADER
  9
$ACADVER
  1
AC1027
  9
$ACADMAINTVER
 70
105
  9
$DWGCODEPAGE
  3
ANSI_1252
  9
$LASTSAVEDBY
  1
ezdxf
  9
$REQUIREDVERSIONS
160
0
  9
$INSBASE
 10
0.0
 20
0.0
 30
0.0
  9
$EXTMIN
 10
1e+20
 20
1e+20
 30
1e+20
  9
$EXTMAX
 10
-1e+20
 20
-1e+20
 30
-1e+20
  9
$LIMMIN
 10
0.0
 20
0.0
  9
$LIMMAX
 10
420.0
 20
297.0
  9
$ORTHOMODE
 70
0
  9
$REGENMODE
 70
1
  9
$FILLMODE
 70
1
  9
$QTEXTMODE
 70
0
  9
$MIRRTEXT
 70
1
  9
$LTSCALE
 40
1.0
  9
$ATTMODE
 70
1
  9
$TEXTSIZE
 40
2.5
  9
$TRACEWID
 40
1.0
  9
$TEXTSTYLE
  7
Standard
  9
$CLAYER
  8
0
  9
$CELTYPE
  6
ByLayer
  9
$CECOLOR
 62
256
  9
$CELTSCALE
 40
1.0
  9
$DISPSILH
 70
0
  9
$DIMSCALE
 40
1.0
  9
$DIMASZ
 40
2.5
  9
$DIMEXO
 40
0.625
  9
$DIMDLI
 40
3.75
  9
$DIMRND
 40
0.0
  9
$DIMDLE
 40
0.0
  9
$DIMEXE
 40
1.25
  9
$DIMTP
 40
0.0
  9
$DIMTM
 40
0.0
  9
$DIMTXT
 40
2.5
  9
$DIMCEN
 40
2.5
  9
$DIMTSZ
 40
0.0
  9
$DIMTOL
 70
0
  9
$DIMLIM
 70
0
  9
$DIMTIH
 70
0
  9
$DIMTOH
 70
0
  9
$DIMSE1
 70
0
  9
$DIMSE2
 70
0
  9
$DIMTAD
 70
1
  9
$DIMZIN
 70
8
  9
$DIMBLK
  1

  9
$DIMASO
 70
1
  9
$DIMSHO
 70
1
  9
$DIMPOST
  1

  9
$DIMAPOST
  1

  9
$DIMALT
 70
0
  9
$DIMALTD
 70
3
  9
$DIMALTF
 40
0.03937007874
  9
$DIMLFAC
 40
1.0
  9
$DIMTOFL
 70
1
  9
$DIMTVP
 40
0.0
  9
$DIMTIX
 70
0
  9
$DIMSOXD
 70
0
  9
$DIMSAH
 70
0
  9
$DIMBLK1
  1

  9
$DIMBLK2
  1

  9
$DIMSTYLE
  2
ISO-25
  9
$DIMCLRD
 70
0
  9
$DIMCLRE
 70
0
  9
$DIMCLRT
 70
0
  9
$DIMTFAC
 40
1.0
  9
$DIMGAP
 40
0.625
  9
$DIMJUST
 70
0
  9
$DIMSD1
 70
0
  9
$DIMSD2
 70
0
  9
$DIMTOLJ
 70
0
  9
$DIMTZIN
 70
8
  9
$DIMALTZ
 70
0
  9
$DIMALTTZ
 70
0
  9
$DIMUPT
 70
0
  9
$DIMDEC
 70
2
  9
$DIMTDEC
 70
2
  9
$DIMALTU
 70
2
  9
$DIMALTTD
 70
3
  9
$DIMTXSTY
  7
Standard
  9
$DIMAUNIT
 70
0
  9
$DIMADEC
 70
0
  9
$DIMALTRND
 40
0.0
  9
$DIMAZIN
 70
0
  9
$DIMDSEP
 70
44
  9
$DIMATFIT
 70
3
  9
$DIMFRAC
 70
0
  9
$DIMLDRBLK
  1

  9
$DIMLUNIT
 70
2
  9
$DIMLWD
 70
-2
  9
$DIMLWE
 70
-2
  9
$DIMTMOVE
 70
0
  9
$DIMFXL
 40
1.0
  9
$DIMFXLON
 70
0
  9
$DIMJOGANG
 40
0.785398163397
  9
$DIMTFILL
 70
0
  9
$DIMTFILLCLR
 70
0
  9
$DIMARCSYM
 70
0
  9
$DIMLTYPE
  6

  9
$DIMLTEX1
  6

  9
$DIMLTEX2
  6

  9
$DIMTXTDIRECTION
 70
0
  9
$LUNITS
 70
2
  9
$LUPREC
 70
4
  9
$SKETCHINC
 40
1.0
  9
$FILLETRAD
 40
10.0
  9
$AUNITS
 70
0
  9
$AUPREC
 70
2
  9
$MENU
  1
.
  9
$ELEVATION
 40
0.0
  9
$PELEVATION
 40
0.0
  9
$THICKNESS
 40
0.0
  9
$LIMCHECK
 70
0
  9
$CHAMFERA
 40
0.0
  9
$CHAMFERB
 40
0.0
  9
$CHAMFERC
 40
0.0
  9
$CHAMFERD
 40
0.0
  9
$SKPOLY
 70
0
  9
$TDCREATE
 40
2460101.7131365743
  9
$TDUCREATE
 40
2458532.153996898
  9
$TDUPDATE
 40
2460101.7131365743
  9
$TDUUPDATE
 40
2458532.1544311
  9
$TDINDWG
 40
0.0
  9
$TDUSRTIMER
 40
0.0
  9
$USRTIMER
 70
1
  9
$ANGBASE
 50
0.0
  9
$ANGDIR
 70
0
  9
$PDMODE
 70
0
  9
$PDSIZE
 40
0.0
  9
$PLINEWID
 40
0.0
  9
$SPLFRAME
 70
0
  9
$SPLINETYPE
 70
6
  9
$SPLINESEGS
 70
8
  9
$HANDSEED
  5
105
  9
$SURFTAB1
 70
6
  9
$SURFTAB2
 70
6
  9
$SURFTYPE
 70
6
  9
$SURFU
 70
6
  9
$SURFV
 70
6
  9
$UCSBASE
  2

  9
$UCSNAME
  2

  9
$UCSORG
 10
0.0
 20
0.0
 30
0.0
  9
$UCSXDIR
 10
1.0
 20
0.0
 30
0.0
  9
$UCSYDIR
 10
0.0
 20
1.0
 30
0.0
  9
$UCSORTHOREF
  2

  9
$UCSORTHOVIEW
 70
0
  9
$UCSORGTOP
 10
0.0
 20
0.0
 30
0.0
  9
$UCSORGBOTTOM
 10
0.0
 20
0.0
 30
0.0
  9
$UCSORGLEFT
 10
0.0
 20
0.0
 30
0.0
  9
$UCSORGRIGHT
 10
0.0
 20
0.0
 30
0.0
  9
$UCSORGFRONT
 10
0.0
 20
0.0
 30
0.0
  9
$UCSORGBACK
 10
0.0
 20
0.0
 30
0.0
  9
$PUCSBASE
  2

  9
$PUCSNAME
  2

  9
$PUCSORG
 10
0.0
 20
0.0
 30
0.0
  9
$PUCSXDIR
 10
1.0
 20
0.0
 30
0.0
  9
$PUCSYDIR
 10
0.0
 20
1.0
 30
0.0
  9
$PUCSORTHOREF
  2

  9
$PUCSORTHOVIEW
 70
0
  9
$PUCSORGTOP
 10
0.0
 20
0.0
 30
0.0
  9
$PUCSORGBOTTOM
 10
0.0
 20
0.0
 30
0.0
  9
$PUCSORGLEFT
 10
0.0
 20
0.0
 30
0.0
  9
$PUCSORGRIGHT
 10
0.0
 20
0.0
 30
0.0
  9
$PUCSORGFRONT
 10
0.0
 20
0.0
 30
0.0
  9
$PUCSORGBACK
 10
0.0
 20
0.0
 30
0.0
  9
$USERI1
 70
0
  9
$USERI2
 70
0
  9
$USERI3
 70
0
  9
$USERI4
 70
0
  9
$USERI5
 70
0
  9
$USERR1
 40
0.0
  9
$USERR2
 40
0.0
  9
$USERR3
 40
0.0
  9
$USERR4
 40
0.0
  9
$USERR5
 40
0.0
  9
$WORLDVIEW
 70
1
  9
$SHADEDGE
 70
3
  9
$SHADEDIF
 70
70
  9
$TILEMODE
 70
1
  9
$MAXACTVP
 70
64
  9
$PINSBASE
 10
0.0
 20
0.0
 30
0.0
  9
$PLIMCHECK
 70
0
  9
$PEXTMIN
 10
1e+20
 20
1e+20
 30
1e+20
  9
$PEXTMAX
 10
-1e+20
 20
-1e+20
 30
-1e+20
  9
$PLIMMIN
 10
0.0
 20
0.0
  9
$PLIMMAX
 10
420.0
 20
297.0
  9
$UNITMODE
 70
0
  9
$VISRETAIN
 70
1
  9
$PLINEGEN
 70
0
  9
$PSLTSCALE
 70
1
  9
$TREEDEPTH
 70
3020
  9
$CMLSTYLE
  2
Standard
  9
$CMLJUST
 70
0
  9
$CMLSCALE
 40
20.0
  9
$PROXYGRAPHICS
 70
1
  9
$MEASUREMENT
 70
1
  9
$CELWEIGHT
370
-1
  9
$ENDCAPS
280
0
  9
$JOINSTYLE
280
0
  9
$LWDISPLAY
290
0
  9
$INSUNITS
 70
4
  9
$HYPERLINKBASE
  1

  9
$STYLESHEET
  1

  9
$XEDIT
290
1
  9
$CEPSNTYPE
380
0
  9
$PSTYLEMODE
290
1
  9
$FINGERPRINTGUID
  2
{228CF1FD-7703-4BC4-8425-3B683CCBDE41}
  9
$VERSIONGUID
  2
{3043CD71-F894-4370-A88C-3F214967514F}
  9
$EXTNAMES
290
1
  9
$PSVPSCALE
 40
0.0
  9
$OLESTARTUP
290
0
  9
$SORTENTS
280
127
  9
$INDEXCTL
280
0
  9
$HIDETEXT
280
1
  9
$XCLIPFRAME
280
0
  9
$HALOGAP
280
0
  9
$OBSCOLOR
 70
257
  9
$OBSLTYPE
280
0
  9
$INTERSECTIONDISPLAY
280
0
  9
$INTERSECTIONCOLOR
 70
257
  9
$DIMASSOC
280
2
  9
$PROJECTNAME
  1

  9
$CAMERADISPLAY
290
0
  9
$LENSLENGTH
 40
50.0
  9
$CAMERAHEIGHT
 40
0.0
  9
$STEPSPERSEC
 40
24.0
  9
$STEPSIZE
 40
100.0
  9
$3DDWFPREC
 40
2.0
  9
$PSOLWIDTH
 40
0.005
  9
$PSOLHEIGHT
 40
0.08
  9
$LOFTANG1
 40
1.570796326795
  9
$LOFTANG2
 40
1.570796326795
  9
$LOFTMAG1
 40
0.0
  9
$LOFTMAG2
 40
0.0
  9
$LOFTPARAM
 70
7
  9
$LOFTNORMALS
280
1
  9
$LATITUDE
 40
37.795
  9
$LONGITUDE
 40
-122.394
  9
$NORTHDIRECTION
 40
0.0
  9
$TIMEZONE
 70
-8000
  9
$LIGHTGLYPHDISPLAY
280
1
  9
$TILEMODELIGHTSYNCH
280
1
  9
$CMATERIAL
347
20
  9
$SOLIDHIST
280
0
  9
$SHOWHIST
280
1
  9
$DWFFRAME
280
2
  9
$DGNFRAME
280
2
  9
$REALWORLDSCALE
290
1
  9
$INTERFERECOLOR
 62
256
  9
$CSHADOW
280
0
  9
$SHADOWPLANELOCATION
 40
0.0
  0
ENDSEC
  0
SECTION
  2
CLASSES
  0
CLASS
  1
ACDBDICTIONARYWDFLT
  2
AcDbDictionaryWithDefault
  3
ObjectDBX Classes
 90
0
 91
0
280
0
281
0
  0
CLASS
  1
SUN
  2
AcDbSun
  3
SCENEOE
 90
1153
 91
0
280
0
281
0
  0
CLASS
  1
VISUALSTYLE
  2
AcDbVisualStyle
  3
ObjectDBX Classes
 90
4095
 91
0
280
0
281
0
  0
CLASS
  1
MATERIAL
  2
AcDbMaterial
  3
ObjectDBX Classes
 90
1153
 91
0
280
0
281
0
  0
CLASS
  1
SCALE
  2
AcDbScale
  3
ObjectDBX Classes
 90
1153
 91
0
280
0
281
0
  0
CLASS
  1
TABLESTYLE
  2
AcDbTableStyle
  3
ObjectDBX Classes
 90
4095
 91
0
280
0
281
0
  0
CLASS
  1
MLEADERSTYLE
  2
AcDbMLeaderStyle
  3
ACDB_MLEADERSTYLE_CLASS
 90
4095
 91
0
280
0
281
0
  0
CLASS
  1
DICTIONARYVAR
  2
AcDbDictionaryVar
  3
ObjectDBX Classes
 90
0
 91
0
280
0
281
0
  0
CLASS
  1
CELLSTYLEMAP
  2
AcDbCellStyleMap
  3
ObjectDBX Classes
 90
1152
 91
0
280
0
281
0
  0
CLASS
  1
MENTALRAYRENDERSETTINGS
  2
AcDbMentalRayRenderSettings
  3
SCENEOE
 90
1024
 91
0
280
0
281
0
  0
CLASS
  1
ACDBDETAILVIEWSTYLE
  2
AcDbDetailViewStyle
  3
ObjectDBX Classes
 90
1025
 91
0
280
0
281
0
  0
CLASS
  1
ACDBSECTIONVIEWSTYLE
  2
AcDbSectionViewStyle
  3
ObjectDBX Classes
 90
1025
 91
0
280
0
281
0
  0
CLASS
  1
RASTERVARIABLES
  2
AcDbRasterVariables
  3
ISM
 90
0
 91
0
280
0
281
0
  0
CLASS
  1
ACDBPLACEHOLDER
  2
AcDbPlaceHolder
  3
ObjectDBX Classes
 90
0
 91
0
280
0
281
0
  0
CLASS
  1
LAYOUT
  2
AcDbLayout
  3
ObjectDBX Classes
 90
0
 91
0
280
0
281
0
  0
ENDSEC
  0
SECTION
  2
TABLES
  0
TABLE
  2
VPORT
  5
8
330
0
100
AcDbSymbolTable
 70
1
  0
VPORT
  5
101
330
8
100
AcDbSymbolTableRecord
100
AcDbViewportTableRecord
  2
*Active
 70
0
 10
0.0
 20
0.0
 11
1.0
 21
1.0
 12
13.692412092752818
 22
-10.873155334344432
 13
0.0
 23
0.0
 14
0.5
 24
0.5
 15
0.5
 25
0.5
 16
0.0
 26
0.0
 36
1.0
 17
0.0
 27
0.0
 37
0.0
 40
162.06655831694323
 41
1.34
 42
50.0
 43
0.0
 44
0.0
 50
0.0
 51
0.0
 71
0
 72
1000
 73
1
 74
3
 75
0
 76
0
 77
0
 78
0
281
0
 65
1
110
0.0
120
0.0
130
0.0
111
1.0
121
0.0
131
0.0
112
0.0
122
1.0
132
0.0
 79
0
146
0.0
  0
ENDTAB
  0
TABLE
  2
LTYPE
  5
2
330
0
100
AcDbSymbolTable
 70
3
  0
LTYPE
  5
24
330
2
100
AcDbSymbolTableRecord
100
AcDbLinetypeTableRecord
  2
ByBlock
 70
0
  3

 72
65
 73
0
 40
0.0
  0
LTYPE
  5
25
330
2
100
AcDbSymbolTableRecord
100
AcDbLinetypeTableRecord
  2
ByLayer
 70
0
  3

 72
65
 73
0
 40
0.0
  0
LTYPE
  5
26
330
2
100
AcDbSymbolTableRecord
100
AcDbLinetypeTableRecord
  2
Continuous
 70
0
  3

 72
65
 73
0
 40
0.0
  0
ENDTAB
  0
TABLE
  2
LAYER
  5
1
330
0
100
AcDbSymbolTable
 70
2
  0
LAYER
  5
27
330
1
100
AcDbSymbolTableRecord
100
AcDbLayerTableRecord
  2
0
 70
0
 62
7
  6
Continuous
370
-3
390
13
347
21
  0
LAYER
  5
28
330
1
100
AcDbSymbolTableRecord
100
AcDbLayerTableRecord
  2
Defpoints
 70
0
 62
7
  6
Continuous
290
0
370
-3
390
13
347
21
  0
ENDTAB
  0
TABLE
  2
STYLE
  5
5
330
0
100
AcDbSymbolTable
 70
1
  0
STYLE
  5
29
330
5
100
AcDbSymbolTableRecord
100
AcDbTextStyleTableRecord
  2
Standard
 70
0
 40
0.0
 41
1.0
 50
0.0
 71
0
 42
2.5
  3
txt
  4

  0
ENDTAB
  0
TABLE
  2
VIEW
  5
7
330
0
100
AcDbSymbolTable
 70
0
  0
ENDTAB
  0
TABLE
  2
UCS
  5
6
330
0
100
AcDbSymbolTable
 70
0
  0
ENDTAB
  0
TABLE
  2
APPID
  5
3
330
0
100
AcDbSymbolTable
 70
3
  0
APPID
  5
2A
330
3
100
AcDbSymbolTableRecord
100
AcDbRegAppTableRecord
  2
ACAD
 70
0
  0
APPID
  5
102
330
3
100
AcDbSymbolTableRecord
100
AcDbRegAppTableRecord
  2
HATCHBACKGROUNDCOLOR
 70
0
  0
APPID
  5
103
330
3
100
AcDbSymbolTableRecord
100
AcDbRegAppTableRecord
  2
EZDXF
 70
0
  0
ENDTAB
  0
TABLE
  2
DIMSTYLE
  5
4
330
0
100
AcDbSymbolTable
 70
1
100
AcDbDimStyleTable
  0
DIMSTYLE
105
2B
330
4
100
AcDbSymbolTableRecord
100
AcDbDimStyleTableRecord
  2
Standard
 70
0
 40
1.0
 41
2.5
 42
0.625
 43
3.75
 44
1.25
 45
0.0
 46
0.0
 47
0.0
 48
0.0
 49
2.5
140
2.5
141
2.5
142
0.0
143
0.03937007874
144
1.0
145
0.0
146
1.0
147
0.625
148
0.0
 69
0
 70
0
 71
0
 72
0
 73
0
 74
0
 75
0
 76
0
 77
1
 78
8
 79
3
170
0
171
3
172
1
173
0
174
0
175
0
176
0
177
0
178
0
179
2
271
2
272
2
273
2
274
3
275
0
276
0
277
2
278
44
279
0
280
0
281
0
282
0
283
0
284
8
285
0
286
0
288
0
289
3
290
0
371
-2
372
-2
  0
ENDTAB
  0
TABLE
  2
BLOCK_RECORD
  5
9
330
0
100
AcDbSymbolTable
 70
2
  0
BLOCK_RECORD
  5
17
330
9
100
AcDbSymbolTableRecord
100
AcDbBlockTableRecord
  2
*Model_Space
340
1A
 70
0
280
1
281
0
  0
BLOCK_RECORD
  5
1B
330
9
100
AcDbSymbolTableRecord
100
AcDbBlockTableRecord
  2
*Paper_Space
340
1E
 70
0
280
1
281
0
  0
ENDTAB
  0
ENDSEC
  0
SECTION
  2
BLOCKS
  0
BLOCK
  5
18
330
17
100
AcDbEntity
  8
0
100
AcDbBlockBegin
  2
*Model_Space
 70
0
 10
0.0
 20
0.0
 30
0.0
  3
*Model_Space
  1

  0
ENDBLK
  5
19
330
17
100
AcDbEntity
  8
0
100
AcDbBlockEnd
  0
BLOCK
  5
1C
330
1B
100
AcDbEntity
  8
0
100
AcDbBlockBegin
  2
*Paper_Space
 70
0
 10
0.0
 20
0.0
 30
0.0
  3
*Paper_Space
  1

  0
ENDBLK
  5
1D
330
1B
100
AcDbEntity
  8
0
100
AcDbBlockEnd
  0
ENDSEC
  0
SECTION
  2
ENTITIES
  0
LINE
  5
2F
330
17
100
AcDbEntity
  8
0
100
AcDbLine
 10
-11.256646228240939
 20
-54.008692867292396
 30
-3.0
 11
-12.00098415398161
 21
-48.97562102935612
 31
-3.0
  0
LINE
  5
30
330
17
100
AcDbEntity
  8
0
100
AcDbLine
 10
-12.000984153981618
 20
-48.97562102935609
 30
-3.0
 11
-12.000984153981618
 21
-48.97562102935609
 31
-2.25
  0
LINE
  5
31
330
17
100
AcDbEntity
  8
0
100
AcDbLine
 10
-11.256646228240932
 20
-54.00869286729244
 30
-2.25
 11
-12.000984153981616
 21
-48.97562102935609
 31
-2.25
  0
LINE
  5
32
330
17
100
AcDbEntity
  8
0
100
AcDbLine
 10
-11.256646228240934
 20
-54.00869286729244
 30
-3.0
 11
-11.256646228240934
 21
-54.00869286729244
 31
-2.25
  0
ARC
  5
33
330
17
100
AcDbEntity
  8
0
100
AcDbCircle
 10
-13.201843655886034
 20
-51.724791168995665
 30
-3.0
 40
3.0
100
AcDbArc
 50
66.40390976378866
 51
310.4210125426491
  0
LINE
  5
34
330
17
100
AcDbEntity
  8
0
100
AcDbLine
 10
52.27256186823656
 20
-91.00527292447336
 30
-3.0
 11
54.18933779438039
 21
-91.90643449281605
 31
-3.0
  0
LINE
  5
35
330
17
100
AcDbEntity
  8
0
100
AcDbLine
 10
42.85189946033539
 20
-84.4088540915321
 30
-3.0
 11
52.27256186823656
 21
-91.00527292447333
 31
-3.0
  0
LINE
  5
36
330
17
100
AcDbEntity
  8
0
100
AcDbLine
 10
42.77749876478599
 20
-84.54340169546239
 30
-3.0
 11
42.85189946033539
 21
-84.4088540915321
 31
-3.0
  0
LINE
  5
37
330
17
100
AcDbEntity
  8
0
100
AcDbLine
 10
42.777498764786145
 20
-84.54340169546218
 30
-3.0
 11
28.094510151060035
 21
-77.69661166027933
 31
-3.0
  0
LINE
  5
38
330
17
100
AcDbEntity
  8
0
100
AcDbLine
 10
26.82787322079215
 20
-76.22461116102697
 30
-3.0
 11
28.09451015106002
 21
-77.69661166027933
 31
-3.0
  0
LINE
  5
39
330
17
100
AcDbEntity
  8
0
100
AcDbLine
 10
26.827873220792142
 20
-76.22461116102696
 30
-3.0
 11
23.903396172447984
 21
-58.02650299054251
 31
-3.0
  0
LINE
  5
3A
330
17
100
AcDbEntity
  8
0
100
AcDbLine
 10
6.546605703618589
 20
-67.34012382412718
 30
-3.0
 11
23.903396172447987
 21
-58.02650299054252
 31
-3.0
  0
LINE
  5
3B
330
17
100
AcDbEntity
  8
0
100
AcDbLine
 10
-10.528668227310044
 20
-67.34012382412719
 30
-3.0
 11
6.546605703618592
 21
-67.34012382412719
 31
-3.0
  0
LINE
  5
3C
330
17
100
AcDbEntity
  8
0
100
AcDbLine
 10
-17.548199765557193
 20
-50.84822557409143
 30
-3.0
 11
-10.528668227310046
 21
-67.34012382412718
 31
-3.0
  0
LINE
  5
3D
330
17
100
AcDbEntity
  8
0
100
AcDbLine
 10
-17.548199765557193
 20
-50.84822557409143
 30
-3.0
 11
-51.97523306778452
 21
-50.84822557409143
 31
-3.0
  0
LINE
  5
3E
330
17
100
AcDbEntity
  8
0
100
AcDbLine
 10
-51.975233067784515
 20
-50.84822557409142
 30
-3.0
 11
-57.34137482093069
 21
-44.98714272775007
 31
-3.0
  0
LINE
  5
3F
330
17
100
AcDbEntity
  8
0
100
AcDbLine
 10
-61.36134510515647
 20
-40.32300744346256
 30
-3.0
 11
-57.341374820930696
 21
-44.987142727750076
 31
-3.0
  0
LINE
  5
40
330
17
100
AcDbEntity
  8
0
100
AcDbLine
 10
-61.36134510515647
 20
-40.32300744346256
 30
-3.0
 11
-61.57294646408638
 21
-39.515437172184114
 31
-3.0
  0
LINE
  5
41
330
17
100
AcDbEntity
  8
0
100
AcDbLine
 10
-61.36134510515646
 20
-28.267414412673492
 30
-3.0
 11
-61.57294646408637
 21
-39.51543717218412
 31
-3.0
  0
LINE
  5
42
330
17
100
AcDbEntity
  8
0
100
AcDbLine
 10
-60.81388698971226
 20
-22.215974314862837
 30
-3.000000000000001
 11
-61.361345105156445
 21
-28.267414412673496
 31
-3.000000000000001
  0
LINE
  5
43
330
17
100
AcDbEntity
  8
0
100
AcDbLine
 10
-60.81388698971228
 20
-22.215974314862834
 30
-3.0000000000000004
 11
-60.46830802441367
 21
-14.7
 31
-3.0000000000000004
  0
LINE
  5
44
330
17
100
AcDbEntity
  8
0
100
AcDbLine
 10
-60.46830802441366
 20
2.6999999999999993
 30
-2.9999999999999996
 11
-60.46830802441366
 21
-14.7
 31
-2.9999999999999996
  0
LINE
  5
45
330
17
100
AcDbEntity
  8
0
100
AcDbLine
 10
-60.46830802441368
 20
2.6999999999999993
 30
-3.000000000000001
 11
-60.81388698971229
 21
10.215974314862837
 31
-3.000000000000001
  0
LINE
  5
46
330
17
100
AcDbEntity
  8
0
100
AcDbLine
 10
-60.813886989712266
 20
10.215974314862835
 30
-3.000000000000001
 11
-61.36134510515647
 21
16.267414412673617
 31
-3.000000000000001
  0
LINE
  5
47
330
17
100
AcDbEntity
  8
0
100
AcDbLine
 10
-61.57112933378758
 20
27.418844583831877
 30
-3.0
 11
-61.361345105156786
 21
16.26741441267361
 31
-3.0
  0
LINE
  5
48
330
17
100
AcDbEntity
  8
0
100
AcDbLine
 10
-61.78553320718461
 20
34.79140808831437
 30
-3.0
 11
-61.57112933378759
 21
27.418844583831877
 31
-3.0
  0
LINE
  5
49
330
17
100
AcDbEntity
  8
0
100
AcDbLine
 10
-62.399857823454624
 20
49.94685652435902
 30
-3.0
 11
-61.785533207185274
 21
34.79140808831434
 31
-3.0
  0
LINE
  5
4A
330
17
100
AcDbEntity
  8
0
100
AcDbLine
 10
-62.39985782345462
 20
49.94685652435901
 30
-3.0
 11
-62.12016664295806
 21
52.24685476250039
 31
-3.0
  0
LINE
  5
4B
330
17
100
AcDbEntity
  8
0
100
AcDbLine
 10
-62.12016664295807
 20
52.2468547625004
 30
-3.0000000000000004
 11
-53.01220425053596
 21
61.34012382412718
 31
-3.0000000000000004
  0
LINE
  5
4C
330
17
100
AcDbEntity
  8
0
100
AcDbLine
 10
-14.98382290242689
 20
61.340123824127176
 30
-3.0
 11
-53.012204250535945
 21
61.340123824127176
 31
-3.0
  0
LINE
  5
4D
330
17
100
AcDbEntity
  8
0
100
AcDbLine
 10
-14.98382290242689
 20
61.34012382412717
 30
-3.0
 11
-10.528668227310042
 21
67.34012382412718
 31
-3.0
  0
LINE
  5
4E
330
17
100
AcDbEntity
  8
0
100
AcDbLine
 10
6.449587101738315
 20
67.34012382412718
 30
-3.0
 11
-10.52866822731005
 21
67.34012382412718
 31
-3.0
  0
LINE
  5
4F
330
17
100
AcDbEntity
  8
0
100
AcDbLine
 10
6.449587101738313
 20
67.34012382412719
 30
-3.0
 11
10.713962632098596
 21
70.16012382412718
 31
-3.0
  0
LINE
  5
50
330
17
100
AcDbEntity
  8
0
100
AcDbLine
 10
27.352492178829426
 20
70.16012382412717
 30
-3.0
 11
10.713962632098596
 21
70.16012382412717
 31
-3.0
  0
LINE
  5
51
330
17
100
AcDbEntity
  8
0
100
AcDbLine
 10
29.338660860825975
 20
67.34012382412718
 30
-3.0
 11
27.352492178829422
 21
70.16012382412717
 31
-3.0
  0
LINE
  5
52
330
17
100
AcDbEntity
  8
0
100
AcDbLine
 10
63.58338925285593
 20
67.34012382412718
 30
-3.0
 11
29.338660860825975
 21
67.34012382412718
 31
-3.0
  0
LINE
  5
53
330
17
100
AcDbEntity
  8
0
100
AcDbLine
 10
67.84611925818
 20
61.253559226445695
 30
-3.0
 11
63.58338925285592
 21
67.34012382412718
 31
-3.0
  0
LINE
  5
54
330
17
100
AcDbEntity
  8
0
100
AcDbLine
 10
77.34611925818001
 20
50.7535592264457
 30
-3.0
 11
67.84611925818
 21
61.25355922644571
 31
-3.0
  0
LINE
  5
55
330
17
100
AcDbEntity
  8
0
100
AcDbLine
 10
77.34611925817998
 20
50.7535592264457
 30
-3.0000000000000036
 11
81.59166537592588
 21
35.59811079040106
 31
-3.0000000000000036
  0
LINE
  5
56
330
17
100
AcDbEntity
  8
0
100
AcDbLine
 10
81.5916653759259
 20
35.59811079040107
 30
-3.0000000000000036
 11
82.5508729303461
 21
30.82542503035664
 31
-3.0000000000000036
  0
LINE
  5
57
330
17
100
AcDbEntity
  8
0
100
AcDbLine
 10
82.55087293034609
 20
30.825425030356634
 30
-3.0
 11
84.74852918439744
 21
13.921722068715638
 31
-3.0
  0
LINE
  5
58
330
17
100
AcDbEntity
  8
0
100
AcDbLine
 10
85.07569700550016
 20
8.8
 30
-3.0
 11
84.74852918439744
 21
13.92172206871564
 31
-3.0
  0
LINE
  5
59
330
17
100
AcDbEntity
  8
0
100
AcDbLine
 10
85.07569700550019
 20
8.8
 30
-3.0
 11
85.07569700550019
 21
-8.8
 31
-3.0
  0
LINE
  5
5A
330
17
100
AcDbEntity
  8
0
100
AcDbLine
 10
85.07569700550017
 20
-8.8
 30
-3.0
 11
84.74852918439746
 21
-13.92172206871564
 31
-3.0
  0
LINE
  5
5B
330
17
100
AcDbEntity
  8
0
100
AcDbLine
 10
82.55087293034609
 20
-30.825425030356634
 30
-3.0
 11
84.74852918439744
 21
-13.921722068715638
 31
-3.0
  0
LINE
  5
5C
330
17
100
AcDbEntity
  8
0
100
AcDbLine
 10
79.69670026959423
 20
-36.35462428906724
 30
-3.0
 11
82.55087293034612
 21
-30.82542503035664
 31
-3.0
  0
LINE
  5
5D
330
17
100
AcDbEntity
  8
0
100
AcDbLine
 10
87.94115160508362
 20
-42.12745126258011
 30
-3.0
 11
79.69670026959423
 21
-36.354624289067246
 31
-3.0
  0
LINE
  5
5E
330
17
100
AcDbEntity
  8
0
100
AcDbLine
 10
87.94115160508366
 20
-42.127451262579996
 30
-3.0
 11
89.65120816062634
 21
-43.91183193562932
 31
-3.0
  0
LINE
  5
5F
330
17
100
AcDbEntity
  8
0
100
AcDbLine
 10
89.78468200896025
 20
-56.7532054376275
 30
-3.0
 11
89.65120816062633
 21
-43.91183193562932
 31
-3.0
  0
LINE
  5
60
330
17
100
AcDbEntity
  8
0
100
AcDbLine
 10
82.755800072098
 20
-65.68920507797473
 30
-3.0
 11
89.78468200896026
 21
-56.75320543762749
 31
-3.0
  0
LINE
  5
61
330
17
100
AcDbEntity
  8
0
100
AcDbLine
 10
79.07263184500502
 20
-70.5657352221167
 30
-3.0000000000000004
 11
82.75580007209778
 21
-65.68920507797458
 31
-3.0000000000000004
  0
LINE
  5
62
330
17
100
AcDbEntity
  8
0
100
AcDbLine
 10
79.072631845005
 20
-70.56573522211669
 30
-3.0000000000000004
 11
79.02800985858838
 21
-70.80727619260391
 31
-3.0000000000000004
  0
LINE
  5
63
330
17
100
AcDbEntity
  8
0
100
AcDbLine
 10
77.84831640913771
 20
-75.27678077500808
 30
-3.0
 11
79.02800985858838
 21
-70.80727619260391
 31
-3.0
  0
LINE
  5
64
330
17
100
AcDbEntity
  8
0
100
AcDbLine
 10
67.19389980262159
 20
-89.3744319695799
 30
-3.0
 11
77.8483164091377
 21
-75.27678077500808
 31
-3.0
  0
LINE
  5
65
330
17
100
AcDbEntity
  8
0
100
AcDbLine
 10
54.91656737229349
 20
-91.78930163332575
 30
-3.0
 11
67.19389980262162
 21
-89.37443196957993
 31
-3.0
  0
LINE
  5
66
330
17
100
AcDbEntity
  8
0
100
AcDbLine
 10
54.18933779438039
 20
-91.90643449281602
 30
-3.0000000000000004
 11
54.916567372293486
 21
-91.78930163332573
 31
-3.0000000000000004
  0
CIRCLE
  5
67
330
17
100
AcDbEntity
  8
0
100
AcDbCircle
 10
53.5191319178627
 20
-84.77542503035662
 30
-3.0
 40
3.0
  0
CIRCLE
  5
68
330
17
100
AcDbEntity
  8
0
100
AcDbCircle
 10
79.09970105737176
 20
-22.323573549536135
 30
-3.0
 40
3.0
  0
CIRCLE
  5
69
330
17
100
AcDbEntity
  8
0
100
AcDbCircle
 10
74.91889231705292
 20
43.12583500842337
 30
-3.0
 40
3.0
  0
CIRCLE
  5
6A
330
17
100
AcDbEntity
  8
0
100
AcDbCircle
 10
-1.167002847522349
 20
-61.45114957469267
 30
-3.0
 40
3.0
  0
CIRCLE
  5
6B
330
17
100
AcDbEntity
  8
0
100
AcDbCircle
 10
-55.776178507821704
 20
44.62582926323222
 30
-3.0
 40
3.0
  0
CIRCLE
  5
6C
330
17
100
AcDbEntity
  8
0
100
AcDbCircle
 10
-55.06601346848838
 20
-32.205856022110204
 30
-3.0
 40
3.0
  0
CIRCLE
  5
6D
330
17
100
AcDbEntity
  8
0
100
AcDbCircle
 10
-1.2578883343962592
 20
62.10066879338031
 30
-3.0
 40
3.0
  0
ARC
  5
6E
330
17
100
AcDbEntity
  8
0
100
AcDbCircle
 10
-13.201843655886034
 20
-51.724791168995665
 30
-2.25
 40
3.0
100
AcDbArc
 50
66.40390976378909
 51
310.42101254264867
  0
LINE
  5
6F
330
17
100
AcDbEntity
  8
0
100
AcDbLine
 10
-13.219061999795208
 20
-50.84822557409143
 30
-2.25
 11
-13.545911147332959
 21
-50.84822557409143
 31
-2.25
  0
LINE
  5
70
330
17
100
AcDbEntity
  8
0
100
AcDbLine
 10
-13.545911147332955
 20
-50.84822557409143
 30
-2.25
 11
-12.988103305690457
 21
-52.74848303921552
 31
-2.25
  0
LINE
  5
71
330
17
100
AcDbEntity
  8
0
100
AcDbLine
 10
-12.98810330569046
 20
-52.74848303921552
 30
-2.25
 11
-13.219061999795212
 21
-50.84822557409143
 31
-2.25
  0
LINE
  5
72
330
17
100
AcDbEntity
  8
0
100
AcDbLine
 10
-13.545911147332955
 20
-50.84822557409143
 30
-2.25
 11
-13.545911147332955
 21
-50.84822557409143
 31
0.0
  0
LINE
  5
73
330
17
100
AcDbEntity
  8
0
100
AcDbLine
 10
-13.219061999795208
 20
-50.84822557409143
 30
0.0
 11
-13.545911147332959
 21
-50.84822557409143
 31
0.0
  0
LINE
  5
74
330
17
100
AcDbEntity
  8
0
100
AcDbLine
 10
-13.219061999795208
 20
-50.84822557409143
 30
-2.25
 11
-13.219061999795208
 21
-50.84822557409143
 31
0.0
  0
LINE
  5
75
330
17
100
AcDbEntity
  8
0
100
AcDbLine
 10
-12.988103305690457
 20
-52.74848303921552
 30
-2.25
 11
-12.988103305690457
 21
-52.74848303921552
 31
0.0
  0
LINE
  5
76
330
17
100
AcDbEntity
  8
0
100
AcDbLine
 10
-13.545911147332955
 20
-50.84822557409143
 30
0.0
 11
-12.988103305690457
 21
-52.74848303921552
 31
0.0
  0
LINE
  5
77
330
17
100
AcDbEntity
  8
0
100
AcDbLine
 10
-12.98810330569046
 20
-52.74848303921552
 30
-8.881784197001252e-16
 11
-13.219061999795212
 21
-50.84822557409143
 31
-8.881784197001252e-16
  0
LINE
  5
78
330
17
100
AcDbEntity
  8
0
100
AcDbLine
 10
52.272561868236565
 20
-91.00527292447333
 30
-3.0
 11
52.272561868236565
 21
-91.00527292447333
 31
0.0
  0
LINE
  5
79
330
17
100
AcDbEntity
  8
0
100
AcDbLine
 10
54.18933779438039
 20
-91.90643449281602
 30
-3.0
 11
54.18933779438039
 21
-91.90643449281602
 31
0.0
  0
LINE
  5
7A
330
17
100
AcDbEntity
  8
0
100
AcDbLine
 10
52.27256186823656
 20
-91.00527292447336
 30
0.0
 11
54.18933779438039
 21
-91.90643449281605
 31
0.0
  0
LINE
  5
7B
330
17
100
AcDbEntity
  8
0
100
AcDbLine
 10
42.85189946033539
 20
-84.4088540915321
 30
-3.0
 11
42.85189946033539
 21
-84.4088540915321
 31
0.0
  0
LINE
  5
7C
330
17
100
AcDbEntity
  8
0
100
AcDbLine
 10
42.85189946033539
 20
-84.4088540915321
 30
0.0
 11
52.27256186823656
 21
-91.00527292447333
 31
0.0
  0
LINE
  5
7D
330
17
100
AcDbEntity
  8
0
100
AcDbLine
 10
54.916567372293486
 20
-91.78930163332573
 30
-3.0
 11
54.916567372293486
 21
-91.78930163332573
 31
0.0
  0
LINE
  5
7E
330
17
100
AcDbEntity
  8
0
100
AcDbLine
 10
54.18933779438039
 20
-91.90643449281602
 30
-4.440892098500626e-16
 11
54.916567372293486
 21
-91.78930163332573
 31
-4.440892098500626e-16
  0
LINE
  5
7F
330
17
100
AcDbEntity
  8
0
100
AcDbLine
 10
42.77749876478602
 20
-84.5434016954624
 30
-3.0
 11
42.77749876478602
 21
-84.5434016954624
 31
0.0
  0
LINE
  5
80
330
17
100
AcDbEntity
  8
0
100
AcDbLine
 10
42.77749876478599
 20
-84.54340169546239
 30
0.0
 11
42.85189946033539
 21
-84.4088540915321
 31
0.0
  0
LINE
  5
81
330
17
100
AcDbEntity
  8
0
100
AcDbLine
 10
67.1938998026216
 20
-89.37443196957992
 30
-3.0
 11
67.1938998026216
 21
-89.37443196957992
 31
0.0
  0
LINE
  5
82
330
17
100
AcDbEntity
  8
0
100
AcDbLine
 10
54.91656737229349
 20
-91.78930163332575
 30
0.0
 11
67.19389980262162
 21
-89.37443196957993
 31
0.0
  0
LINE
  5
83
330
17
100
AcDbEntity
  8
0
100
AcDbLine
 10
28.09451015106002
 20
-77.69661166027933
 30
-3.0
 11
28.09451015106002
 21
-77.69661166027933
 31
0.0
  0
LINE
  5
84
330
17
100
AcDbEntity
  8
0
100
AcDbLine
 10
42.777498764786145
 20
-84.54340169546218
 30
0.0
 11
28.094510151060035
 21
-77.69661166027933
 31
0.0
  0
LINE
  5
85
330
17
100
AcDbEntity
  8
0
100
AcDbLine
 10
77.84831640913771
 20
-75.27678077500808
 30
-3.0
 11
77.84831640913771
 21
-75.27678077500808
 31
0.0
  0
LINE
  5
86
330
17
100
AcDbEntity
  8
0
100
AcDbLine
 10
67.19389980262159
 20
-89.3744319695799
 30
0.0
 11
77.8483164091377
 21
-75.27678077500808
 31
0.0
  0
LINE
  5
87
330
17
100
AcDbEntity
  8
0
100
AcDbLine
 10
26.82787322079215
 20
-76.22461116102696
 30
-3.0
 11
26.82787322079215
 21
-76.22461116102696
 31
0.0
  0
LINE
  5
88
330
17
100
AcDbEntity
  8
0
100
AcDbLine
 10
26.82787322079215
 20
-76.22461116102697
 30
0.0
 11
28.09451015106002
 21
-77.69661166027933
 31
0.0
  0
LINE
  5
89
330
17
100
AcDbEntity
  8
0
100
AcDbLine
 10
79.02800985858836
 20
-70.80727619260391
 30
-3.0
 11
79.02800985858836
 21
-70.80727619260391
 31
0.0
  0
LINE
  5
8A
330
17
100
AcDbEntity
  8
0
100
AcDbLine
 10
77.84831640913771
 20
-75.27678077500808
 30
0.0
 11
79.02800985858838
 21
-70.80727619260391
 31
0.0
  0
LINE
  5
8B
330
17
100
AcDbEntity
  8
0
100
AcDbLine
 10
23.903396172447984
 20
-58.02650299054251
 30
-3.0
 11
23.903396172447984
 21
-58.02650299054251
 31
0.0
  0
LINE
  5
8C
330
17
100
AcDbEntity
  8
0
100
AcDbLine
 10
26.827873220792142
 20
-76.22461116102696
 30
0.0
 11
23.903396172447984
 21
-58.02650299054251
 31
0.0
  0
LINE
  5
8D
330
17
100
AcDbEntity
  8
0
100
AcDbLine
 10
79.072631845005
 20
-70.56573522211669
 30
-3.0
 11
79.072631845005
 21
-70.56573522211669
 31
0.0
  0
LINE
  5
8E
330
17
100
AcDbEntity
  8
0
100
AcDbLine
 10
79.072631845005
 20
-70.56573522211669
 30
-4.440892098500626e-16
 11
79.02800985858838
 21
-70.80727619260391
 31
-4.440892098500626e-16
  0
LINE
  5
8F
330
17
100
AcDbEntity
  8
0
100
AcDbLine
 10
6.546605703618592
 20
-67.34012382412718
 30
-3.0
 11
6.546605703618592
 21
-67.34012382412718
 31
0.0
  0
LINE
  5
90
330
17
100
AcDbEntity
  8
0
100
AcDbLine
 10
6.546605703618589
 20
-67.34012382412718
 30
0.0
 11
23.903396172447987
 21
-58.02650299054252
 31
0.0
  0
LINE
  5
91
330
17
100
AcDbEntity
  8
0
100
AcDbLine
 10
82.75580007209777
 20
-65.68920507797456
 30
-3.0
 11
82.75580007209777
 21
-65.68920507797456
 31
0.0
  0
LINE
  5
92
330
17
100
AcDbEntity
  8
0
100
AcDbLine
 10
79.07263184500502
 20
-70.5657352221167
 30
-4.440892098500626e-16
 11
82.75580007209778
 21
-65.68920507797458
 31
-4.440892098500626e-16
  0
LINE
  5
93
330
17
100
AcDbEntity
  8
0
100
AcDbLine
 10
-10.528668227310046
 20
-67.34012382412718
 30
-3.0
 11
-10.528668227310046
 21
-67.34012382412718
 31
0.0
  0
LINE
  5
94
330
17
100
AcDbEntity
  8
0
100
AcDbLine
 10
-10.528668227310044
 20
-67.34012382412719
 30
0.0
 11
6.546605703618592
 21
-67.34012382412719
 31
0.0
  0
LINE
  5
95
330
17
100
AcDbEntity
  8
0
100
AcDbLine
 10
89.78468200896026
 20
-56.7532054376275
 30
-3.0
 11
89.78468200896026
 21
-56.7532054376275
 31
0.0
  0
LINE
  5
96
330
17
100
AcDbEntity
  8
0
100
AcDbLine
 10
82.755800072098
 20
-65.68920507797473
 30
0.0
 11
89.78468200896026
 21
-56.75320543762749
 31
0.0
  0
LINE
  5
97
330
17
100
AcDbEntity
  8
0
100
AcDbLine
 10
-17.548199765557197
 20
-50.84822557409143
 30
-3.0
 11
-17.548199765557197
 21
-50.84822557409143
 31
0.0
  0
LINE
  5
98
330
17
100
AcDbEntity
  8
0
100
AcDbLine
 10
-17.548199765557193
 20
-50.84822557409143
 30
0.0
 11
-10.528668227310046
 21
-67.34012382412718
 31
0.0
  0
LINE
  5
99
330
17
100
AcDbEntity
  8
0
100
AcDbLine
 10
89.65120816062634
 20
-43.91183193562932
 30
-3.0
 11
89.65120816062634
 21
-43.91183193562932
 31
0.0
  0
LINE
  5
9A
330
17
100
AcDbEntity
  8
0
100
AcDbLine
 10
89.78468200896025
 20
-56.7532054376275
 30
0.0
 11
89.65120816062633
 21
-43.91183193562932
 31
0.0
  0
LINE
  5
9B
330
17
100
AcDbEntity
  8
0
100
AcDbLine
 10
-51.97523306778452
 20
-50.84822557409143
 30
-3.0
 11
-51.97523306778452
 21
-50.84822557409143
 31
0.0
  0
LINE
  5
9C
330
17
100
AcDbEntity
  8
0
100
AcDbLine
 10
-17.548199765557193
 20
-50.84822557409143
 30
0.0
 11
-51.97523306778452
 21
-50.84822557409143
 31
0.0
  0
LINE
  5
9D
330
17
100
AcDbEntity
  8
0
100
AcDbLine
 10
87.94115160508366
 20
-42.127451262579996
 30
-3.0
 11
87.94115160508366
 21
-42.127451262579996
 31
0.0
  0
LINE
  5
9E
330
17
100
AcDbEntity
  8
0
100
AcDbLine
 10
87.94115160508366
 20
-42.127451262579996
 30
0.0
 11
89.65120816062634
 21
-43.91183193562932
 31
0.0
  0
LINE
  5
9F
330
17
100
AcDbEntity
  8
0
100
AcDbLine
 10
-57.341374820930696
 20
-44.987142727750076
 30
-3.0
 11
-57.341374820930696
 21
-44.987142727750076
 31
0.0
  0
LINE
  5
A0
330
17
100
AcDbEntity
  8
0
100
AcDbLine
 10
-51.975233067784515
 20
-50.84822557409142
 30
0.0
 11
-57.34137482093069
 21
-44.98714272775007
 31
0.0
  0
LINE
  5
A1
330
17
100
AcDbEntity
  8
0
100
AcDbLine
 10
79.69670026959423
 20
-36.35462428906724
 30
-3.0
 11
79.69670026959423
 21
-36.35462428906724
 31
0.0
  0
LINE
  5
A2
330
17
100
AcDbEntity
  8
0
100
AcDbLine
 10
87.94115160508362
 20
-42.12745126258011
 30
0.0
 11
79.69670026959423
 21
-36.354624289067246
 31
0.0
  0
LINE
  5
A3
330
17
100
AcDbEntity
  8
0
100
AcDbLine
 10
-61.36134510515647
 20
-40.32300744346256
 30
-3.0
 11
-61.36134510515647
 21
-40.32300744346256
 31
0.0
  0
LINE
  5
A4
330
17
100
AcDbEntity
  8
0
100
AcDbLine
 10
-61.36134510515647
 20
-40.32300744346256
 30
0.0
 11
-57.341374820930696
 21
-44.987142727750076
 31
0.0
  0
LINE
  5
A5
330
17
100
AcDbEntity
  8
0
100
AcDbLine
 10
82.5508729303461
 20
-30.825425030356637
 30
-3.0
 11
82.5508729303461
 21
-30.825425030356637
 31
0.0
  0
LINE
  5
A6
330
17
100
AcDbEntity
  8
0
100
AcDbLine
 10
79.69670026959423
 20
-36.35462428906724
 30
0.0
 11
82.55087293034612
 21
-30.82542503035664
 31
0.0
  0
LINE
  5
A7
330
17
100
AcDbEntity
  8
0
100
AcDbLine
 10
-61.57294646408638
 20
-39.515437172184114
 30
-3.0
 11
-61.57294646408638
 21
-39.515437172184114
 31
0.0
  0
LINE
  5
A8
330
17
100
AcDbEntity
  8
0
100
AcDbLine
 10
-61.36134510515647
 20
-40.32300744346256
 30
0.0
 11
-61.57294646408638
 21
-39.515437172184114
 31
0.0
  0
LINE
  5
A9
330
17
100
AcDbEntity
  8
0
100
AcDbLine
 10
84.74852918439746
 20
-13.92172206871564
 30
-3.0
 11
84.74852918439746
 21
-13.92172206871564
 31
0.0
  0
LINE
  5
AA
330
17
100
AcDbEntity
  8
0
100
AcDbLine
 10
82.55087293034609
 20
-30.825425030356634
 30
0.0
 11
84.74852918439744
 21
-13.921722068715638
 31
0.0
  0
LINE
  5
AB
330
17
100
AcDbEntity
  8
0
100
AcDbLine
 10
-61.36134510515647
 20
-28.267414412673492
 30
-3.0
 11
-61.36134510515647
 21
-28.267414412673492
 31
0.0
  0
LINE
  5
AC
330
17
100
AcDbEntity
  8
0
100
AcDbLine
 10
-61.36134510515646
 20
-28.267414412673492
 30
0.0
 11
-61.57294646408637
 21
-39.51543717218412
 31
0.0
  0
LINE
  5
AD
330
17
100
AcDbEntity
  8
0
100
AcDbLine
 10
85.07569700550017
 20
-8.8
 30
-3.0
 11
85.07569700550017
 21
-8.8
 31
0.0
  0
LINE
  5
AE
330
17
100
AcDbEntity
  8
0
100
AcDbLine
 10
85.07569700550017
 20
-8.8
 30
0.0
 11
84.74852918439746
 21
-13.92172206871564
 31
0.0
  0
LINE
  5
AF
330
17
100
AcDbEntity
  8
0
100
AcDbLine
 10
-60.81388698971227
 20
-22.215974314862834
 30
-3.0
 11
-60.81388698971227
 21
-22.215974314862834
 31
0.0
  0
LINE
  5
B0
330
17
100
AcDbEntity
  8
0
100
AcDbLine
 10
-60.81388698971226
 20
-22.215974314862837
 30
-8.881784197001252e-16
 11
-61.361345105156445
 21
-28.267414412673496
 31
-8.881784197001252e-16
  0
LINE
  5
B1
330
17
100
AcDbEntity
  8
0
100
AcDbLine
 10
85.07569700550017
 20
8.8
 30
-3.0
 11
85.07569700550017
 21
8.8
 31
0.0
  0
LINE
  5
B2
330
17
100
AcDbEntity
  8
0
100
AcDbLine
 10
85.07569700550019
 20
8.8
 30
0.0
 11
85.07569700550019
 21
-8.8
 31
0.0
  0
LINE
  5
B3
330
17
100
AcDbEntity
  8
0
100
AcDbLine
 10
-60.468308024413666
 20
-14.7
 30
-3.0
 11
-60.468308024413666
 21
-14.7
 31
0.0
  0
LINE
  5
B4
330
17
100
AcDbEntity
  8
0
100
AcDbLine
 10
-60.81388698971228
 20
-22.215974314862834
 30
-4.440892098500626e-16
 11
-60.46830802441367
 21
-14.7
 31
-4.440892098500626e-16
  0
LINE
  5
B5
330
17
100
AcDbEntity
  8
0
100
AcDbLine
 10
84.74852918439746
 20
13.92172206871564
 30
-3.0
 11
84.74852918439746
 21
13.92172206871564
 31
0.0
  0
LINE
  5
B6
330
17
100
AcDbEntity
  8
0
100
AcDbLine
 10
85.07569700550016
 20
8.8
 30
0.0
 11
84.74852918439744
 21
13.92172206871564
 31
0.0
  0
LINE
  5
B7
330
17
100
AcDbEntity
  8
0
100
AcDbLine
 10
-60.468308024413666
 20
2.6999999999999993
 30
-3.0
 11
-60.468308024413666
 21
2.6999999999999993
 31
0.0
  0
LINE
  5
B8
330
17
100
AcDbEntity
  8
0
100
AcDbLine
 10
-60.46830802441366
 20
2.6999999999999993
 30
4.440892098500626e-16
 11
-60.46830802441366
 21
-14.7
 31
4.440892098500626e-16
  0
LINE
  5
B9
330
17
100
AcDbEntity
  8
0
100
AcDbLine
 10
82.5508729303461
 20
30.825425030356637
 30
-3.0
 11
82.5508729303461
 21
30.825425030356637
 31
0.0
  0
LINE
  5
BA
330
17
100
AcDbEntity
  8
0
100
AcDbLine
 10
82.55087293034609
 20
30.825425030356634
 30
0.0
 11
84.74852918439744
 21
13.921722068715638
 31
0.0
  0
LINE
  5
BB
330
17
100
AcDbEntity
  8
0
100
AcDbLine
 10
-60.81388698971227
 20
10.215974314862835
 30
-3.0
 11
-60.81388698971227
 21
10.215974314862835
 31
0.0
  0
LINE
  5
BC
330
17
100
AcDbEntity
  8
0
100
AcDbLine
 10
-60.46830802441368
 20
2.6999999999999993
 30
-8.881784197001252e-16
 11
-60.81388698971229
 21
10.215974314862837
 31
-8.881784197001252e-16
  0
LINE
  5
BD
330
17
100
AcDbEntity
  8
0
100
AcDbLine
 10
81.5916653759259
 20
35.598110790401066
 30
-3.0
 11
81.5916653759259
 21
35.598110790401066
 31
0.0
  0
LINE
  5
BE
330
17
100
AcDbEntity
  8
0
100
AcDbLine
 10
81.5916653759259
 20
35.59811079040107
 30
-3.552713678800501e-15
 11
82.5508729303461
 21
30.82542503035664
 31
-3.552713678800501e-15
  0
LINE
  5
BF
330
17
100
AcDbEntity
  8
0
100
AcDbLine
 10
-61.36134510515646
 20
16.267414412673617
 30
-3.0
 11
-61.36134510515646
 21
16.267414412673617
 31
0.0
  0
LINE
  5
C0
330
17
100
AcDbEntity
  8
0
100
AcDbLine
 10
-60.813886989712266
 20
10.215974314862835
 30
-8.881784197001252e-16
 11
-61.36134510515647
 21
16.267414412673617
 31
-8.881784197001252e-16
  0
LINE
  5
C1
330
17
100
AcDbEntity
  8
0
100
AcDbLine
 10
77.34611925818
 20
50.7535592264457
 30
-3.0
 11
77.34611925818
 21
50.7535592264457
 31
0.0
  0
LINE
  5
C2
330
17
100
AcDbEntity
  8
0
100
AcDbLine
 10
77.34611925817998
 20
50.7535592264457
 30
-3.552713678800501e-15
 11
81.59166537592588
 21
35.59811079040106
 31
-3.552713678800501e-15
  0
LINE
  5
C3
330
17
100
AcDbEntity
  8
0
100
AcDbLine
 10
-61.57112933378758
 20
27.418844583831877
 30
-3.0
 11
-61.57112933378758
 21
27.418844583831877
 31
0.0
  0
LINE
  5
C4
330
17
100
AcDbEntity
  8
0
100
AcDbLine
 10
-61.57112933378758
 20
27.418844583831877
 30
0.0
 11
-61.361345105156786
 21
16.26741441267361
 31
0.0
  0
LINE
  5
C5
330
17
100
AcDbEntity
  8
0
100
AcDbLine
 10
67.84611925818
 20
61.2535592264457
 30
-3.0
 11
67.84611925818
 21
61.2535592264457
 31
0.0
  0
LINE
  5
C6
330
17
100
AcDbEntity
  8
0
100
AcDbLine
 10
77.34611925818001
 20
50.7535592264457
 30
0.0
 11
67.84611925818
 21
61.25355922644571
 31
0.0
  0
LINE
  5
C7
330
17
100
AcDbEntity
  8
0
100
AcDbLine
 10
-61.7855332071846
 20
34.79140808831437
 30
-3.0
 11
-61.7855332071846
 21
34.79140808831437
 31
0.0
  0
LINE
  5
C8
330
17
100
AcDbEntity
  8
0
100
AcDbLine
 10
-61.78553320718461
 20
34.79140808831437
 30
0.0
 11
-61.57112933378759
 21
27.418844583831877
 31
0.0
  0
LINE
  5
C9
330
17
100
AcDbEntity
  8
0
100
AcDbLine
 10
63.58338925285593
 20
67.34012382412718
 30
-3.0
 11
63.58338925285593
 21
67.34012382412718
 31
0.0
  0
LINE
  5
CA
330
17
100
AcDbEntity
  8
0
100
AcDbLine
 10
67.84611925818
 20
61.253559226445695
 30
0.0
 11
63.58338925285592
 21
67.34012382412718
 31
0.0
  0
LINE
  5
CB
330
17
100
AcDbEntity
  8
0
100
AcDbLine
 10
-62.39985782345462
 20
49.94685652435901
 30
-3.0
 11
-62.39985782345462
 21
49.94685652435901
 31
0.0
  0
LINE
  5
CC
330
17
100
AcDbEntity
  8
0
100
AcDbLine
 10
-62.399857823454624
 20
49.94685652435902
 30
0.0
 11
-61.785533207185274
 21
34.79140808831434
 31
0.0
  0
LINE
  5
CD
330
17
100
AcDbEntity
  8
0
100
AcDbLine
 10
29.338660860825975
 20
67.34012382412718
 30
-3.0
 11
29.338660860825975
 21
67.34012382412718
 31
0.0
  0
LINE
  5
CE
330
17
100
AcDbEntity
  8
0
100
AcDbLine
 10
63.58338925285593
 20
67.34012382412718
 30
0.0
 11
29.338660860825975
 21
67.34012382412718
 31
0.0
  0
LINE
  5
CF
330
17
100
AcDbEntity
  8
0
100
AcDbLine
 10
-62.12016664295806
 20
52.24685476250039
 30
-3.0
 11
-62.12016664295806
 21
52.24685476250039
 31
0.0
  0
LINE
  5
D0
330
17
100
AcDbEntity
  8
0
100
AcDbLine
 10
-62.39985782345462
 20
49.94685652435901
 30
0.0
 11
-62.12016664295806
 21
52.24685476250039
 31
0.0
  0
LINE
  5
D1
330
17
100
AcDbEntity
  8
0
100
AcDbLine
 10
27.352492178829426
 20
70.16012382412717
 30
-3.0
 11
27.352492178829426
 21
70.16012382412717
 31
0.0
  0
LINE
  5
D2
330
17
100
AcDbEntity
  8
0
100
AcDbLine
 10
29.338660860825975
 20
67.34012382412718
 30
0.0
 11
27.352492178829422
 21
70.16012382412717
 31
0.0
  0
LINE
  5
D3
330
17
100
AcDbEntity
  8
0
100
AcDbLine
 10
-53.01220425053595
 20
61.340123824127176
 30
-3.0
 11
-53.01220425053595
 21
61.340123824127176
 31
0.0
  0
LINE
  5
D4
330
17
100
AcDbEntity
  8
0
100
AcDbLine
 10
-62.12016664295807
 20
52.2468547625004
 30
-4.440892098500626e-16
 11
-53.01220425053596
 21
61.34012382412718
 31
-4.440892098500626e-16
  0
LINE
  5
D5
330
17
100
AcDbEntity
  8
0
100
AcDbLine
 10
10.713962632098596
 20
70.16012382412717
 30
-3.0
 11
10.713962632098596
 21
70.16012382412717
 31
0.0
  0
LINE
  5
D6
330
17
100
AcDbEntity
  8
0
100
AcDbLine
 10
27.352492178829426
 20
70.16012382412717
 30
0.0
 11
10.713962632098596
 21
70.16012382412717
 31
0.0
  0
LINE
  5
D7
330
17
100
AcDbEntity
  8
0
100
AcDbLine
 10
-14.983822902426894
 20
61.340123824127176
 30
-3.0
 11
-14.983822902426894
 21
61.340123824127176
 31
0.0
  0
LINE
  5
D8
330
17
100
AcDbEntity
  8
0
100
AcDbLine
 10
-14.98382290242689
 20
61.340123824127176
 30
0.0
 11
-53.012204250535945
 21
61.340123824127176
 31
0.0
  0
LINE
  5
D9
330
17
100
AcDbEntity
  8
0
100
AcDbLine
 10
6.449587101738315
 20
67.34012382412718
 30
-3.0
 11
6.449587101738315
 21
67.34012382412718
 31
0.0
  0
LINE
  5
DA
330
17
100
AcDbEntity
  8
0
100
AcDbLine
 10
6.449587101738313
 20
67.34012382412719
 30
0.0
 11
10.713962632098596
 21
70.16012382412718
 31
0.0
  0
LINE
  5
DB
330
17
100
AcDbEntity
  8
0
100
AcDbLine
 10
-10.528668227310046
 20
67.34012382412718
 30
-3.0
 11
-10.528668227310046
 21
67.34012382412718
 31
0.0
  0
LINE
  5
DC
330
17
100
AcDbEntity
  8
0
100
AcDbLine
 10
-14.98382290242689
 20
61.34012382412717
 30
0.0
 11
-10.528668227310042
 21
67.34012382412718
 31
0.0
  0
LINE
  5
DD
330
17
100
AcDbEntity
  8
0
100
AcDbLine
 10
6.449587101738315
 20
67.34012382412718
 30
0.0
 11
-10.52866822731005
 21
67.34012382412718
 31
0.0
  0
LINE
  5
DE
330
17
100
AcDbEntity
  8
0
100
AcDbLine
 10
50.5191319178627
 20
-84.77542503035662
 30
-3.0
 11
50.5191319178627
 21
-84.77542503035662
 31
-2.25
  0
CIRCLE
  5
DF
330
17
100
AcDbEntity
  8
0
100
AcDbCircle
 10
53.5191319178627
 20
-84.77542503035662
 30
-2.25
 40
3.0
  0
LINE
  5
E0
330
17
100
AcDbEntity
  8
0
100
AcDbLine
 10
76.09970105737176
 20
-22.323573549536135
 30
-3.0
 11
76.09970105737176
 21
-22.323573549536135
 31
-2.25
  0
CIRCLE
  5
E1
330
17
100
AcDbEntity
  8
0
100
AcDbCircle
 10
79.09970105737176
 20
-22.323573549536135
 30
-2.25
 40
3.0
  0
LINE
  5
E2
330
17
100
AcDbEntity
  8
0
100
AcDbLine
 10
-4.167002847522349
 20
-61.45114957469267
 30
-3.0
 11
-4.167002847522349
 21
-61.45114957469267
 31
-2.25
  0
CIRCLE
  5
E3
330
17
100
AcDbEntity
  8
0
100
AcDbCircle
 10
-1.167002847522349
 20
-61.45114957469267
 30
-2.25
 40
3.0
  0
LINE
  5
E4
330
17
100
AcDbEntity
  8
0
100
AcDbLine
 10
-58.06601346848838
 20
-32.205856022110204
 30
-3.0
 11
-58.06601346848838
 21
-32.205856022110204
 31
-2.25
  0
CIRCLE
  5
E5
330
17
100
AcDbEntity
  8
0
100
AcDbCircle
 10
-55.06601346848838
 20
-32.205856022110204
 30
-2.25
 40
3.0
  0
LINE
  5
E6
330
17
100
AcDbEntity
  8
0
100
AcDbLine
 10
71.91889231705292
 20
43.12583500842337
 30
-3.0
 11
71.91889231705292
 21
43.12583500842337
 31
-2.25
  0
CIRCLE
  5
E7
330
17
100
AcDbEntity
  8
0
100
AcDbCircle
 10
74.91889231705292
 20
43.12583500842337
 30
-2.25
 40
3.0
  0
LINE
  5
E8
330
17
100
AcDbEntity
  8
0
100
AcDbLine
 10
-4.2578883343962595
 20
62.10066879338031
 30
-3.0
 11
-4.2578883343962595
 21
62.10066879338031
 31
-2.25
  0
CIRCLE
  5
E9
330
17
100
AcDbEntity
  8
0
100
AcDbCircle
 10
-1.2578883343962592
 20
62.10066879338031
 30
-2.25
 40
3.0
  0
LINE
  5
EA
330
17
100
AcDbEntity
  8
0
100
AcDbLine
 10
-58.776178507821704
 20
44.62582926323222
 30
-3.0
 11
-58.776178507821704
 21
44.62582926323222
 31
-2.25
  0
CIRCLE
  5
EB
330
17
100
AcDbEntity
  8
0
100
AcDbCircle
 10
-55.776178507821704
 20
44.62582926323222
 30
-2.25
 40
3.0
  0
CIRCLE
  5
EC
330
17
100
AcDbEntity
  8
0
100
AcDbCircle
 10
53.51913191786271
 20
-84.77542503035664
 30
0.0
 40
1.55
  0
CIRCLE
  5
ED
330
17
100
AcDbEntity
  8
0
100
AcDbCircle
 10
79.09970105737177
 20
-22.32357354953614
 30
0.0
 40
1.55
  0
CIRCLE
  5
EE
330
17
100
AcDbEntity
  8
0
100
AcDbCircle
 10
-1.167002847522342
 20
-61.451149574692685
 30
0.0
 40
1.55
  0
CIRCLE
  5
EF
330
17
100
AcDbEntity
  8
0
100
AcDbCircle
 10
-55.06601346848838
 20
-32.20585602211021
 30
0.0
 40
1.55
  0
CIRCLE
  5
F0
330
17
100
AcDbEntity
  8
0
100
AcDbCircle
 10
74.91889231705294
 20
43.12583500842339
 30
0.0
 40
1.55
  0
CIRCLE
  5
F1
330
17
100
AcDbEntity
  8
0
100
AcDbCircle
 10
-1.2578883343962521
 20
62.100668793380315
 30
0.0
 40
1.55
  0
CIRCLE
  5
F2
330
17
100
AcDbEntity
  8
0
100
AcDbCircle
 10
-55.776178507821704
 20
44.62582926323223
 30
0.0
 40
1.55
  0
CIRCLE
  5
F3
330
17
100
AcDbEntity
  8
0
100
AcDbCircle
 10
53.51913191786271
 20
-84.77542503035664
 30
-2.25
 40
1.55
  0
CIRCLE
  5
F4
330
17
100
AcDbEntity
  8
0
100
AcDbCircle
 10
79.09970105737177
 20
-22.32357354953614
 30
-2.25
 40
1.55
  0
CIRCLE
  5
F5
330
17
100
AcDbEntity
  8
0
100
AcDbCircle
 10
-1.167002847522342
 20
-61.451149574692685
 30
-2.25
 40
1.55
  0
CIRCLE
  5
F6
330
17
100
AcDbEntity
  8
0
100
AcDbCircle
 10
-55.06601346848838
 20
-32.20585602211021
 30
-2.25
 40
1.55
  0
CIRCLE
  5
F7
330
17
100
AcDbEntity
  8
0
100
AcDbCircle
 10
74.91889231705294
 20
43.12583500842339
 30
-2.25
 40
1.55
  0
CIRCLE
  5
F8
330
17
100
AcDbEntity
  8
0
100
AcDbCircle
 10
-1.2578883343962521
 20
62.100668793380315
 30
-2.25
 40
1.55
  0
CIRCLE
  5
F9
330
17
100
AcDbEntity
  8
0
100
AcDbCircle
 10
-55.776178507821704
 20
44.62582926323223
 30
-2.25
 40
1.55
  0
LINE
  5
FA
330
17
100
AcDbEntity
  8
0
100
AcDbLine
 10
51.96913191786271
 20
-84.77542503035664
 30
-2.25
 11
51.96913191786271
 21
-84.77542503035664
 31
0.0
  0
LINE
  5
FB
330
17
100
AcDbEntity
  8
0
100
AcDbLine
 10
77.54970105737178
 20
-22.32357354953614
 30
-2.25
 11
77.54970105737178
 21
-22.32357354953614
 31
0.0
  0
LINE
  5
FC
330
17
100
AcDbEntity
  8
0
100
AcDbLine
 10
-2.717002847522342
 20
-61.451149574692685
 30
-2.25
 11
-2.717002847522342
 21
-61.451149574692685
 31
0.0
  0
LINE
  5
FD
330
17
100
AcDbEntity
  8
0
100
AcDbLine
 10
-56.616013468488376
 20
-32.20585602211021
 30
-2.25
 11
-56.616013468488376
 21
-32.20585602211021
 31
0.0
  0
LINE
  5
FE
330
17
100
AcDbEntity
  8
0
100
AcDbLine
 10
73.36889231705294
 20
43.12583500842339
 30
-2.25
 11
73.36889231705294
 21
43.12583500842339
 31
0.0
  0
LINE
  5
FF
330
17
100
AcDbEntity
  8
0
100
AcDbLine
 10
-2.807888334396252
 20
62.100668793380315
 30
-2.25
 11
-2.807888334396252
 21
62.100668793380315
 31
0.0
  0
LINE
  5
100
330
17
100
AcDbEntity
  8
0
100
AcDbLine
 10
-57.3261785078217
 20
44.62582926323223
 30
-2.25
 11
-57.3261785078217
 21
44.62582926323223
 31
0.0
  0
ENDSEC
  0
SECTION
  2
OBJECTS
  0
DICTIONARY
  5
A
330
0
100
AcDbDictionary
280
0
281
1
  3
ACAD_COLOR
350
B
  3
ACAD_GROUP
350
C
  3
ACAD_LAYOUT
350
D
  3
ACAD_MATERIAL
350
E
  3
ACAD_MLEADERSTYLE
350
F
  3
ACAD_MLINESTYLE
350
10
  3
ACAD_PLOTSETTINGS
350
11
  3
ACAD_PLOTSTYLENAME
350
12
  3
ACAD_SCALELIST
350
14
  3
ACAD_TABLESTYLE
350
15
  3
ACAD_VISUALSTYLE
350
16
  3
EZDXF_META
350
2D
  0
DICTIONARY
  5
B
330
A
100
AcDbDictionary
280
0
281
1
  0
DICTIONARY
  5
C
330
A
100
AcDbDictionary
280
0
281
1
  0
DICTIONARY
  5
D
330
A
100
AcDbDictionary
280
0
281
1
  3
Model
350
1A
  3
Layout1
350
1E
  0
DICTIONARY
  5
E
330
A
100
AcDbDictionary
280
0
281
1
  3
ByBlock
350
1F
  3
ByLayer
350
20
  3
Global
350
21
  0
DICTIONARY
  5
F
330
A
100
AcDbDictionary
280
0
281
1
  3
Standard
350
2C
  0
DICTIONARY
  5
10
330
A
100
AcDbDictionary
280
0
281
1
  3
Standard
350
22
  0
DICTIONARY
  5
11
330
A
100
AcDbDictionary
280
0
281
1
  0
ACDBDICTIONARYWDFLT
  5
12
330
A
100
AcDbDictionary
280
0
281
1
  3
Normal
350
13
100
AcDbDictionaryWithDefault
340
13
  0
ACDBPLACEHOLDER
  5
13
330
12
  0
DICTIONARY
  5
14
330
A
100
AcDbDictionary
280
0
281
1
  0
DICTIONARY
  5
15
330
A
100
AcDbDictionary
280
0
281
1
  0
DICTIONARY
  5
16
330
A
100
AcDbDictionary
280
0
281
1
  0
LAYOUT
  5
1A
330
D
100
AcDbPlotSettings
  1

  2
Adobe PDF
  4
A3
  6

 40
7.5
 41
20.0
 42
7.5
 43
20.0
 44
420.0
 45
297.0
 46
0.0
 47
0.0
 48
0.0
 49
0.0
140
0.0
141
0.0
142
1.0
143
1.0
 70
1024
 72
1
 73
0
 74
5
  7

 75
16
 76
0
 77
2
 78
300
147
1.0
148
0.0
149
0.0
100
AcDbLayout
  1
Model
 70
1
 71
0
 10
0.0
 20
0.0
 11
420.0
 21
297.0
 12
0.0
 22
0.0
 32
0.0
 14
1e+20
 24
1e+20
 34
1e+20
 15
-1e+20
 25
-1e+20
 35
-1e+20
146
0.0
 13
0.0
 23
0.0
 33
0.0
 16
1.0
 26
0.0
 36
0.0
 17
0.0
 27
1.0
 37
0.0
 76
1
330
17
  0
LAYOUT
  5
1E
330
D
100
AcDbPlotSettings
  1

  2
Adobe PDF
  4
A3
  6

 40
7.5
 41
20.0
 42
7.5
 43
20.0
 44
420.0
 45
297.0
 46
0.0
 47
0.0
 48
0.0
 49
0.0
140
0.0
141
0.0
142
1.0
143
1.0
 70
0
 72
1
 73
0
 74
5
  7

 75
16
 76
0
 77
2
 78
300
147
1.0
148
0.0
149
0.0
100
AcDbLayout
  1
Layout1
 70
1
 71
1
 10
0.0
 20
0.0
 11
420.0
 21
297.0
 12
0.0
 22
0.0
 32
0.0
 14
1e+20
 24
1e+20
 34
1e+20
 15
-1e+20
 25
-1e+20
 35
-1e+20
146
0.0
 13
0.0
 23
0.0
 33
0.0
 16
1.0
 26
0.0
 36
0.0
 17
0.0
 27
1.0
 37
0.0
 76
1
330
1B
  0
MATERIAL
  5
1F
102
{ACAD_REACTORS
330
E
102
}
330
E
100
AcDbMaterial
  1
ByBlock
  2

 70
0
 40
1.0
 71
1
 41
1.0
 91
-1023410177
 42
1.0
 72
1
  3

 73
1
 74
1
 75
1
 44
0.5
 73
0
 45
1.0
 46
1.0
 77
1
  4

 78
1
 79
1
170
1
 48
1.0
171
1
  6

172
1
173
1
174
1
140
1.0
141
1.0
175
1
  7

176
1
177
1
178
1
143
1.0
179
1
  8

270
1
271
1
272
1
145
1.0
146
1.0
273
1
  9

274
1
275
1
276
1
 42
1.0
 72
1
  3

 73
1
 74
1
 75
1
 94
63
  0
MATERIAL
  5
20
102
{ACAD_REACTORS
330
E
102
}
330
E
100
AcDbMaterial
  1
ByLayer
  2

 70
0
 40
1.0
 71
1
 41
1.0
 91
-1023410177
 42
1.0
 72
1
  3

 73
1
 74
1
 75
1
 44
0.5
 73
0
 45
1.0
 46
1.0
 77
1
  4

 78
1
 79
1
170
1
 48
1.0
171
1
  6

172
1
173
1
174
1
140
1.0
141
1.0
175
1
  7

176
1
177
1
178
1
143
1.0
179
1
  8

270
1
271
1
272
1
145
1.0
146
1.0
273
1
  9

274
1
275
1
276
1
 42
1.0
 72
1
  3

 73
1
 74
1
 75
1
 94
63
  0
MATERIAL
  5
21
102
{ACAD_REACTORS
330
E
102
}
330
E
100
AcDbMaterial
  1
Global
  2

 70
0
 40
1.0
 71
1
 41
1.0
 91
-1023410177
 42
1.0
 72
1
  3

 73
1
 74
1
 75
1
 44
0.5
 73
0
 45
1.0
 46
1.0
 77
1
  4

 78
1
 79
1
170
1
 48
1.0
171
1
  6

172
1
173
1
174
1
140
1.0
141
1.0
175
1
  7

176
1
177
1
178
1
143
1.0
179
1
  8

270
1
271
1
272
1
145
1.0
146
1.0
273
1
  9

274
1
275
1
276
1
 42
1.0
 72
1
  3

 73
1
 74
1
 75
1
 94
63
  0
MLINESTYLE
  5
22
102
{ACAD_REACTORS
330
10
102
}
330
10
100
AcDbMlineStyle
  2
Standard
 70
0
  3

 62
256
 51
90.0
 52
90.0
 71
2
 49
0.5
 62
256
  6
BYLAYER
 49
-0.5
 62
256
  6
BYLAYER
  0
MLEADERSTYLE
  5
2C
102
{ACAD_REACTORS
330
F
102
}
330
F
100
AcDbMLeaderStyle
179
2
170
2
171
1
172
0
 90
2
 40
0.0
 41
0.0
173
1
 91
-1056964608
 92
-2
290
1
 42
2.0
291
1
 43
8.0
  3
Standard
 44
4.0
300

342
29
174
1
175
1
176
0
178
1
 93
-1056964608
 45
4.0
292
0
297
0
 46
4.0
 94
-1056964608
 47
1.0
 49
1.0
140
1.0
294
1
141
0.0
177
0
142
1.0
295
0
296
0
143
3.75
271
0
272
9
273
9
  0
DICTIONARY
  5
2D
330
A
100
AcDbDictionary
281
1
  3
CREATED_BY_EZDXF
350
2E
  3
WRITTEN_BY_EZDXF
350
104
  0
DICTIONARYVAR
  5
2E
330
2D
100
DictionaryVariables
280
0
  1
1.0.3 @ 2023-06-05T21:06:55.427421+00:00
  0
DICTIONARYVAR
  5
104
330
2D
100
DictionaryVariables
280
0
  1
1.0.3 @ 2023-06-05T21:06:55.442154+00:00
  0
ENDSEC
  0
EOF
